<?xml version="1.0" encoding="utf-8" standalone="no"?>
<!DOCTYPE svg PUBLIC "-//W3C//DTD SVG 1.1//EN"
  "http://www.w3.org/Graphics/SVG/1.1/DTD/svg11.dtd">
<svg xmlns:xlink="http://www.w3.org/1999/xlink" width="460.8pt" height="345.6pt" viewBox="0 0 460.8 345.6" xmlns="http://www.w3.org/2000/svg" version="1.1">
 <metadata>
  <rdf:RDF xmlns:dc="http://purl.org/dc/elements/1.1/" xmlns:cc="http://creativecommons.org/ns#" xmlns:rdf="http://www.w3.org/1999/02/22-rdf-syntax-ns#">
   <cc:Work>
    <dc:type rdf:resource="http://purl.org/dc/dcmitype/StillImage"/>
    <dc:date>2022-11-13T15:11:13.327928</dc:date>
    <dc:format>image/svg+xml</dc:format>
    <dc:creator>
     <cc:Agent>
      <dc:title>Matplotlib v3.5.1, https://matplotlib.org/</dc:title>
     </cc:Agent>
    </dc:creator>
   </cc:Work>
  </rdf:RDF>
 </metadata>
 <defs>
  <style type="text/css">*{stroke-linejoin: round; stroke-linecap: butt}</style>
 </defs>
 <g id="figure_1">
  <g id="patch_1">
   <path d="M 0 345.6 
L 460.8 345.6 
L 460.8 0 
L 0 0 
z
" style="fill: #ffffff"/>
  </g>
  <g id="axes_1">
   <g id="patch_2">
    <path d="M 57.6 307.584 
L 414.72 307.584 
L 414.72 41.472 
L 57.6 41.472 
z
" style="fill: #ffffff"/>
   </g>
   <g id="matplotlib.axis_1">
    <g id="xtick_1">
     <g id="line2d_1">
      <defs>
       <path id="m5f33ba6c5b" d="M 0 0 
L 0 3.5 
" style="stroke: #000000; stroke-width: 0.8"/>
      </defs>
      <g>
       <use xlink:href="#m5f33ba6c5b" x="57.6" y="307.584" style="stroke: #000000; stroke-width: 0.8"/>
      </g>
     </g>
     <g id="text_1">
      <!-- 0 -->
      <g transform="translate(54.41875 322.182437)scale(0.1 -0.1)">
       <defs>
        <path id="DejaVuSans-30" d="M 2034 4250 
Q 1547 4250 1301 3770 
Q 1056 3291 1056 2328 
Q 1056 1369 1301 889 
Q 1547 409 2034 409 
Q 2525 409 2770 889 
Q 3016 1369 3016 2328 
Q 3016 3291 2770 3770 
Q 2525 4250 2034 4250 
z
M 2034 4750 
Q 2819 4750 3233 4129 
Q 3647 3509 3647 2328 
Q 3647 1150 3233 529 
Q 2819 -91 2034 -91 
Q 1250 -91 836 529 
Q 422 1150 422 2328 
Q 422 3509 836 4129 
Q 1250 4750 2034 4750 
z
" transform="scale(0.015625)"/>
       </defs>
       <use xlink:href="#DejaVuSans-30"/>
      </g>
     </g>
    </g>
    <g id="xtick_2">
     <g id="line2d_2">
      <g>
       <use xlink:href="#m5f33ba6c5b" x="102.24" y="307.584" style="stroke: #000000; stroke-width: 0.8"/>
      </g>
     </g>
     <g id="text_2">
      <!-- 250 -->
      <g transform="translate(92.69625 322.182437)scale(0.1 -0.1)">
       <defs>
        <path id="DejaVuSans-32" d="M 1228 531 
L 3431 531 
L 3431 0 
L 469 0 
L 469 531 
Q 828 903 1448 1529 
Q 2069 2156 2228 2338 
Q 2531 2678 2651 2914 
Q 2772 3150 2772 3378 
Q 2772 3750 2511 3984 
Q 2250 4219 1831 4219 
Q 1534 4219 1204 4116 
Q 875 4013 500 3803 
L 500 4441 
Q 881 4594 1212 4672 
Q 1544 4750 1819 4750 
Q 2544 4750 2975 4387 
Q 3406 4025 3406 3419 
Q 3406 3131 3298 2873 
Q 3191 2616 2906 2266 
Q 2828 2175 2409 1742 
Q 1991 1309 1228 531 
z
" transform="scale(0.015625)"/>
        <path id="DejaVuSans-35" d="M 691 4666 
L 3169 4666 
L 3169 4134 
L 1269 4134 
L 1269 2991 
Q 1406 3038 1543 3061 
Q 1681 3084 1819 3084 
Q 2600 3084 3056 2656 
Q 3513 2228 3513 1497 
Q 3513 744 3044 326 
Q 2575 -91 1722 -91 
Q 1428 -91 1123 -41 
Q 819 9 494 109 
L 494 744 
Q 775 591 1075 516 
Q 1375 441 1709 441 
Q 2250 441 2565 725 
Q 2881 1009 2881 1497 
Q 2881 1984 2565 2268 
Q 2250 2553 1709 2553 
Q 1456 2553 1204 2497 
Q 953 2441 691 2322 
L 691 4666 
z
" transform="scale(0.015625)"/>
       </defs>
       <use xlink:href="#DejaVuSans-32"/>
       <use xlink:href="#DejaVuSans-35" x="63.623047"/>
       <use xlink:href="#DejaVuSans-30" x="127.246094"/>
      </g>
     </g>
    </g>
    <g id="xtick_3">
     <g id="line2d_3">
      <g>
       <use xlink:href="#m5f33ba6c5b" x="146.88" y="307.584" style="stroke: #000000; stroke-width: 0.8"/>
      </g>
     </g>
     <g id="text_3">
      <!-- 500 -->
      <g transform="translate(137.33625 322.182437)scale(0.1 -0.1)">
       <use xlink:href="#DejaVuSans-35"/>
       <use xlink:href="#DejaVuSans-30" x="63.623047"/>
       <use xlink:href="#DejaVuSans-30" x="127.246094"/>
      </g>
     </g>
    </g>
    <g id="xtick_4">
     <g id="line2d_4">
      <g>
       <use xlink:href="#m5f33ba6c5b" x="191.52" y="307.584" style="stroke: #000000; stroke-width: 0.8"/>
      </g>
     </g>
     <g id="text_4">
      <!-- 750 -->
      <g transform="translate(181.97625 322.182437)scale(0.1 -0.1)">
       <defs>
        <path id="DejaVuSans-37" d="M 525 4666 
L 3525 4666 
L 3525 4397 
L 1831 0 
L 1172 0 
L 2766 4134 
L 525 4134 
L 525 4666 
z
" transform="scale(0.015625)"/>
       </defs>
       <use xlink:href="#DejaVuSans-37"/>
       <use xlink:href="#DejaVuSans-35" x="63.623047"/>
       <use xlink:href="#DejaVuSans-30" x="127.246094"/>
      </g>
     </g>
    </g>
    <g id="xtick_5">
     <g id="line2d_5">
      <g>
       <use xlink:href="#m5f33ba6c5b" x="236.16" y="307.584" style="stroke: #000000; stroke-width: 0.8"/>
      </g>
     </g>
     <g id="text_5">
      <!-- 1000 -->
      <g transform="translate(223.435 322.182437)scale(0.1 -0.1)">
       <defs>
        <path id="DejaVuSans-31" d="M 794 531 
L 1825 531 
L 1825 4091 
L 703 3866 
L 703 4441 
L 1819 4666 
L 2450 4666 
L 2450 531 
L 3481 531 
L 3481 0 
L 794 0 
L 794 531 
z
" transform="scale(0.015625)"/>
       </defs>
       <use xlink:href="#DejaVuSans-31"/>
       <use xlink:href="#DejaVuSans-30" x="63.623047"/>
       <use xlink:href="#DejaVuSans-30" x="127.246094"/>
       <use xlink:href="#DejaVuSans-30" x="190.869141"/>
      </g>
     </g>
    </g>
    <g id="xtick_6">
     <g id="line2d_6">
      <g>
       <use xlink:href="#m5f33ba6c5b" x="280.8" y="307.584" style="stroke: #000000; stroke-width: 0.8"/>
      </g>
     </g>
     <g id="text_6">
      <!-- 1250 -->
      <g transform="translate(268.075 322.182437)scale(0.1 -0.1)">
       <use xlink:href="#DejaVuSans-31"/>
       <use xlink:href="#DejaVuSans-32" x="63.623047"/>
       <use xlink:href="#DejaVuSans-35" x="127.246094"/>
       <use xlink:href="#DejaVuSans-30" x="190.869141"/>
      </g>
     </g>
    </g>
    <g id="xtick_7">
     <g id="line2d_7">
      <g>
       <use xlink:href="#m5f33ba6c5b" x="325.44" y="307.584" style="stroke: #000000; stroke-width: 0.8"/>
      </g>
     </g>
     <g id="text_7">
      <!-- 1500 -->
      <g transform="translate(312.715 322.182437)scale(0.1 -0.1)">
       <use xlink:href="#DejaVuSans-31"/>
       <use xlink:href="#DejaVuSans-35" x="63.623047"/>
       <use xlink:href="#DejaVuSans-30" x="127.246094"/>
       <use xlink:href="#DejaVuSans-30" x="190.869141"/>
      </g>
     </g>
    </g>
    <g id="xtick_8">
     <g id="line2d_8">
      <g>
       <use xlink:href="#m5f33ba6c5b" x="370.08" y="307.584" style="stroke: #000000; stroke-width: 0.8"/>
      </g>
     </g>
     <g id="text_8">
      <!-- 1750 -->
      <g transform="translate(357.355 322.182437)scale(0.1 -0.1)">
       <use xlink:href="#DejaVuSans-31"/>
       <use xlink:href="#DejaVuSans-37" x="63.623047"/>
       <use xlink:href="#DejaVuSans-35" x="127.246094"/>
       <use xlink:href="#DejaVuSans-30" x="190.869141"/>
      </g>
     </g>
    </g>
    <g id="xtick_9">
     <g id="line2d_9">
      <g>
       <use xlink:href="#m5f33ba6c5b" x="414.72" y="307.584" style="stroke: #000000; stroke-width: 0.8"/>
      </g>
     </g>
     <g id="text_9">
      <!-- 2000 -->
      <g transform="translate(401.995 322.182437)scale(0.1 -0.1)">
       <use xlink:href="#DejaVuSans-32"/>
       <use xlink:href="#DejaVuSans-30" x="63.623047"/>
       <use xlink:href="#DejaVuSans-30" x="127.246094"/>
       <use xlink:href="#DejaVuSans-30" x="190.869141"/>
      </g>
     </g>
    </g>
    <g id="text_10">
     <!-- Time/ms -->
     <g transform="translate(214.767031 335.860562)scale(0.1 -0.1)">
      <defs>
       <path id="DejaVuSans-54" d="M -19 4666 
L 3928 4666 
L 3928 4134 
L 2272 4134 
L 2272 0 
L 1638 0 
L 1638 4134 
L -19 4134 
L -19 4666 
z
" transform="scale(0.015625)"/>
       <path id="DejaVuSans-69" d="M 603 3500 
L 1178 3500 
L 1178 0 
L 603 0 
L 603 3500 
z
M 603 4863 
L 1178 4863 
L 1178 4134 
L 603 4134 
L 603 4863 
z
" transform="scale(0.015625)"/>
       <path id="DejaVuSans-6d" d="M 3328 2828 
Q 3544 3216 3844 3400 
Q 4144 3584 4550 3584 
Q 5097 3584 5394 3201 
Q 5691 2819 5691 2113 
L 5691 0 
L 5113 0 
L 5113 2094 
Q 5113 2597 4934 2840 
Q 4756 3084 4391 3084 
Q 3944 3084 3684 2787 
Q 3425 2491 3425 1978 
L 3425 0 
L 2847 0 
L 2847 2094 
Q 2847 2600 2669 2842 
Q 2491 3084 2119 3084 
Q 1678 3084 1418 2786 
Q 1159 2488 1159 1978 
L 1159 0 
L 581 0 
L 581 3500 
L 1159 3500 
L 1159 2956 
Q 1356 3278 1631 3431 
Q 1906 3584 2284 3584 
Q 2666 3584 2933 3390 
Q 3200 3197 3328 2828 
z
" transform="scale(0.015625)"/>
       <path id="DejaVuSans-65" d="M 3597 1894 
L 3597 1613 
L 953 1613 
Q 991 1019 1311 708 
Q 1631 397 2203 397 
Q 2534 397 2845 478 
Q 3156 559 3463 722 
L 3463 178 
Q 3153 47 2828 -22 
Q 2503 -91 2169 -91 
Q 1331 -91 842 396 
Q 353 884 353 1716 
Q 353 2575 817 3079 
Q 1281 3584 2069 3584 
Q 2775 3584 3186 3129 
Q 3597 2675 3597 1894 
z
M 3022 2063 
Q 3016 2534 2758 2815 
Q 2500 3097 2075 3097 
Q 1594 3097 1305 2825 
Q 1016 2553 972 2059 
L 3022 2063 
z
" transform="scale(0.015625)"/>
       <path id="DejaVuSans-2f" d="M 1625 4666 
L 2156 4666 
L 531 -594 
L 0 -594 
L 1625 4666 
z
" transform="scale(0.015625)"/>
       <path id="DejaVuSans-73" d="M 2834 3397 
L 2834 2853 
Q 2591 2978 2328 3040 
Q 2066 3103 1784 3103 
Q 1356 3103 1142 2972 
Q 928 2841 928 2578 
Q 928 2378 1081 2264 
Q 1234 2150 1697 2047 
L 1894 2003 
Q 2506 1872 2764 1633 
Q 3022 1394 3022 966 
Q 3022 478 2636 193 
Q 2250 -91 1575 -91 
Q 1294 -91 989 -36 
Q 684 19 347 128 
L 347 722 
Q 666 556 975 473 
Q 1284 391 1588 391 
Q 1994 391 2212 530 
Q 2431 669 2431 922 
Q 2431 1156 2273 1281 
Q 2116 1406 1581 1522 
L 1381 1569 
Q 847 1681 609 1914 
Q 372 2147 372 2553 
Q 372 3047 722 3315 
Q 1072 3584 1716 3584 
Q 2034 3584 2315 3537 
Q 2597 3491 2834 3397 
z
" transform="scale(0.015625)"/>
      </defs>
      <use xlink:href="#DejaVuSans-54"/>
      <use xlink:href="#DejaVuSans-69" x="57.958984"/>
      <use xlink:href="#DejaVuSans-6d" x="85.742188"/>
      <use xlink:href="#DejaVuSans-65" x="183.154297"/>
      <use xlink:href="#DejaVuSans-2f" x="244.677734"/>
      <use xlink:href="#DejaVuSans-6d" x="278.369141"/>
      <use xlink:href="#DejaVuSans-73" x="375.78125"/>
     </g>
    </g>
   </g>
   <g id="matplotlib.axis_2">
    <g id="ytick_1">
     <g id="line2d_10">
      <defs>
       <path id="m9d45958c8a" d="M 0 0 
L -3.5 0 
" style="stroke: #000000; stroke-width: 0.8"/>
      </defs>
      <g>
       <use xlink:href="#m9d45958c8a" x="57.6" y="287.875322" style="stroke: #000000; stroke-width: 0.8"/>
      </g>
     </g>
     <g id="text_11">
      <!-- −0.2 -->
      <g transform="translate(26.317187 291.674541)scale(0.1 -0.1)">
       <defs>
        <path id="DejaVuSans-2212" d="M 678 2272 
L 4684 2272 
L 4684 1741 
L 678 1741 
L 678 2272 
z
" transform="scale(0.015625)"/>
        <path id="DejaVuSans-2e" d="M 684 794 
L 1344 794 
L 1344 0 
L 684 0 
L 684 794 
z
" transform="scale(0.015625)"/>
       </defs>
       <use xlink:href="#DejaVuSans-2212"/>
       <use xlink:href="#DejaVuSans-30" x="83.789062"/>
       <use xlink:href="#DejaVuSans-2e" x="147.412109"/>
       <use xlink:href="#DejaVuSans-32" x="179.199219"/>
      </g>
     </g>
    </g>
    <g id="ytick_2">
     <g id="line2d_11">
      <g>
       <use xlink:href="#m9d45958c8a" x="57.6" y="243.307827" style="stroke: #000000; stroke-width: 0.8"/>
      </g>
     </g>
     <g id="text_12">
      <!-- 0.0 -->
      <g transform="translate(34.696875 247.107046)scale(0.1 -0.1)">
       <use xlink:href="#DejaVuSans-30"/>
       <use xlink:href="#DejaVuSans-2e" x="63.623047"/>
       <use xlink:href="#DejaVuSans-30" x="95.410156"/>
      </g>
     </g>
    </g>
    <g id="ytick_3">
     <g id="line2d_12">
      <g>
       <use xlink:href="#m9d45958c8a" x="57.6" y="198.740332" style="stroke: #000000; stroke-width: 0.8"/>
      </g>
     </g>
     <g id="text_13">
      <!-- 0.2 -->
      <g transform="translate(34.696875 202.539551)scale(0.1 -0.1)">
       <use xlink:href="#DejaVuSans-30"/>
       <use xlink:href="#DejaVuSans-2e" x="63.623047"/>
       <use xlink:href="#DejaVuSans-32" x="95.410156"/>
      </g>
     </g>
    </g>
    <g id="ytick_4">
     <g id="line2d_13">
      <g>
       <use xlink:href="#m9d45958c8a" x="57.6" y="154.172837" style="stroke: #000000; stroke-width: 0.8"/>
      </g>
     </g>
     <g id="text_14">
      <!-- 0.4 -->
      <g transform="translate(34.696875 157.972056)scale(0.1 -0.1)">
       <defs>
        <path id="DejaVuSans-34" d="M 2419 4116 
L 825 1625 
L 2419 1625 
L 2419 4116 
z
M 2253 4666 
L 3047 4666 
L 3047 1625 
L 3713 1625 
L 3713 1100 
L 3047 1100 
L 3047 0 
L 2419 0 
L 2419 1100 
L 313 1100 
L 313 1709 
L 2253 4666 
z
" transform="scale(0.015625)"/>
       </defs>
       <use xlink:href="#DejaVuSans-30"/>
       <use xlink:href="#DejaVuSans-2e" x="63.623047"/>
       <use xlink:href="#DejaVuSans-34" x="95.410156"/>
      </g>
     </g>
    </g>
    <g id="ytick_5">
     <g id="line2d_14">
      <g>
       <use xlink:href="#m9d45958c8a" x="57.6" y="109.605342" style="stroke: #000000; stroke-width: 0.8"/>
      </g>
     </g>
     <g id="text_15">
      <!-- 0.6 -->
      <g transform="translate(34.696875 113.404561)scale(0.1 -0.1)">
       <defs>
        <path id="DejaVuSans-36" d="M 2113 2584 
Q 1688 2584 1439 2293 
Q 1191 2003 1191 1497 
Q 1191 994 1439 701 
Q 1688 409 2113 409 
Q 2538 409 2786 701 
Q 3034 994 3034 1497 
Q 3034 2003 2786 2293 
Q 2538 2584 2113 2584 
z
M 3366 4563 
L 3366 3988 
Q 3128 4100 2886 4159 
Q 2644 4219 2406 4219 
Q 1781 4219 1451 3797 
Q 1122 3375 1075 2522 
Q 1259 2794 1537 2939 
Q 1816 3084 2150 3084 
Q 2853 3084 3261 2657 
Q 3669 2231 3669 1497 
Q 3669 778 3244 343 
Q 2819 -91 2113 -91 
Q 1303 -91 875 529 
Q 447 1150 447 2328 
Q 447 3434 972 4092 
Q 1497 4750 2381 4750 
Q 2619 4750 2861 4703 
Q 3103 4656 3366 4563 
z
" transform="scale(0.015625)"/>
       </defs>
       <use xlink:href="#DejaVuSans-30"/>
       <use xlink:href="#DejaVuSans-2e" x="63.623047"/>
       <use xlink:href="#DejaVuSans-36" x="95.410156"/>
      </g>
     </g>
    </g>
    <g id="ytick_6">
     <g id="line2d_15">
      <g>
       <use xlink:href="#m9d45958c8a" x="57.6" y="65.037847" style="stroke: #000000; stroke-width: 0.8"/>
      </g>
     </g>
     <g id="text_16">
      <!-- 0.8 -->
      <g transform="translate(34.696875 68.837065)scale(0.1 -0.1)">
       <defs>
        <path id="DejaVuSans-38" d="M 2034 2216 
Q 1584 2216 1326 1975 
Q 1069 1734 1069 1313 
Q 1069 891 1326 650 
Q 1584 409 2034 409 
Q 2484 409 2743 651 
Q 3003 894 3003 1313 
Q 3003 1734 2745 1975 
Q 2488 2216 2034 2216 
z
M 1403 2484 
Q 997 2584 770 2862 
Q 544 3141 544 3541 
Q 544 4100 942 4425 
Q 1341 4750 2034 4750 
Q 2731 4750 3128 4425 
Q 3525 4100 3525 3541 
Q 3525 3141 3298 2862 
Q 3072 2584 2669 2484 
Q 3125 2378 3379 2068 
Q 3634 1759 3634 1313 
Q 3634 634 3220 271 
Q 2806 -91 2034 -91 
Q 1263 -91 848 271 
Q 434 634 434 1313 
Q 434 1759 690 2068 
Q 947 2378 1403 2484 
z
M 1172 3481 
Q 1172 3119 1398 2916 
Q 1625 2713 2034 2713 
Q 2441 2713 2670 2916 
Q 2900 3119 2900 3481 
Q 2900 3844 2670 4047 
Q 2441 4250 2034 4250 
Q 1625 4250 1398 4047 
Q 1172 3844 1172 3481 
z
" transform="scale(0.015625)"/>
       </defs>
       <use xlink:href="#DejaVuSans-30"/>
       <use xlink:href="#DejaVuSans-2e" x="63.623047"/>
       <use xlink:href="#DejaVuSans-38" x="95.410156"/>
      </g>
     </g>
    </g>
    <g id="text_17">
     <!-- ECG -->
     <g transform="translate(20.2375 185.053)rotate(-90)scale(0.1 -0.1)">
      <defs>
       <path id="DejaVuSans-45" d="M 628 4666 
L 3578 4666 
L 3578 4134 
L 1259 4134 
L 1259 2753 
L 3481 2753 
L 3481 2222 
L 1259 2222 
L 1259 531 
L 3634 531 
L 3634 0 
L 628 0 
L 628 4666 
z
" transform="scale(0.015625)"/>
       <path id="DejaVuSans-43" d="M 4122 4306 
L 4122 3641 
Q 3803 3938 3442 4084 
Q 3081 4231 2675 4231 
Q 1875 4231 1450 3742 
Q 1025 3253 1025 2328 
Q 1025 1406 1450 917 
Q 1875 428 2675 428 
Q 3081 428 3442 575 
Q 3803 722 4122 1019 
L 4122 359 
Q 3791 134 3420 21 
Q 3050 -91 2638 -91 
Q 1578 -91 968 557 
Q 359 1206 359 2328 
Q 359 3453 968 4101 
Q 1578 4750 2638 4750 
Q 3056 4750 3426 4639 
Q 3797 4528 4122 4306 
z
" transform="scale(0.015625)"/>
       <path id="DejaVuSans-47" d="M 3809 666 
L 3809 1919 
L 2778 1919 
L 2778 2438 
L 4434 2438 
L 4434 434 
Q 4069 175 3628 42 
Q 3188 -91 2688 -91 
Q 1594 -91 976 548 
Q 359 1188 359 2328 
Q 359 3472 976 4111 
Q 1594 4750 2688 4750 
Q 3144 4750 3555 4637 
Q 3966 4525 4313 4306 
L 4313 3634 
Q 3963 3931 3569 4081 
Q 3175 4231 2741 4231 
Q 1884 4231 1454 3753 
Q 1025 3275 1025 2328 
Q 1025 1384 1454 906 
Q 1884 428 2741 428 
Q 3075 428 3337 486 
Q 3600 544 3809 666 
z
" transform="scale(0.015625)"/>
      </defs>
      <use xlink:href="#DejaVuSans-45"/>
      <use xlink:href="#DejaVuSans-43" x="63.183594"/>
      <use xlink:href="#DejaVuSans-47" x="133.007812"/>
     </g>
    </g>
   </g>
   <g id="line2d_16">
    <path d="M 57.6 243.724533 
L 58.31424 211.281063 
L 58.4928 211.018366 
L 58.67136 212.124724 
L 58.84992 214.563449 
L 59.02848 221.663051 
L 59.74272 265.615264 
L 59.92128 272.402956 
L 60.09984 270.732498 
L 60.2784 270.429881 
L 60.45696 277.533689 
L 60.81408 264.047708 
L 61.70688 220.559522 
L 62.064 214.467488 
L 62.24256 217.862064 
L 62.77824 241.907761 
L 63.67104 272.420221 
L 63.8496 274.205932 
L 64.02816 273.206768 
L 64.38528 260.16645 
L 65.09952 227.925107 
L 65.27808 227.883012 
L 65.45664 225.940709 
L 65.6352 219.741786 
L 65.81376 220.403249 
L 66.17088 246.916685 
L 66.34944 246.276983 
L 66.528 250.856128 
L 66.88512 263.2873 
L 67.06368 267.322302 
L 67.4208 231.573502 
L 67.77792 295.488 
L 68.13504 255.970389 
L 68.49216 244.132579 
L 69.02784 225.513723 
L 69.2064 225.732701 
L 69.38496 226.869186 
L 69.56352 229.214892 
L 70.45632 260.567791 
L 70.992 264.10566 
L 71.17056 261.123337 
L 71.34912 266.274536 
L 71.52768 263.590258 
L 72.06336 231.051333 
L 72.42048 228.233448 
L 72.59904 230.45817 
L 72.95616 219.57522 
L 73.13472 218.133789 
L 73.31328 222.828287 
L 73.49184 223.395057 
L 73.6704 225.853693 
L 74.20608 215.934449 
L 74.5632 207.993483 
L 74.74176 205.154694 
L 74.92032 193.392799 
L 75.09888 189.975455 
L 75.63456 149.860594 
L 76.3488 127.620583 
L 76.88448 103.196114 
L 77.06304 107.285903 
L 77.2416 91.201775 
L 77.42016 86.260116 
L 77.59872 88.971069 
L 77.77728 87.128829 
L 77.95584 87.713342 
L 78.1344 83.556833 
L 78.31296 90.857677 
L 78.49152 86.607029 
L 78.67008 91.389003 
L 79.38432 125.447093 
L 79.74144 145.359564 
L 80.09856 157.808447 
L 80.27712 168.906999 
L 80.45568 195.664736 
L 80.63424 204.812331 
L 80.8128 197.002412 
L 81.16992 208.689526 
L 81.34848 207.612435 
L 81.52704 212.208008 
L 81.7056 213.841146 
L 81.88416 220.737776 
L 82.41984 225.055726 
L 82.5984 232.370996 
L 82.77696 224.436709 
L 82.95552 225.186948 
L 83.13408 224.970977 
L 83.4912 220.740766 
L 83.66976 222.321451 
L 83.84832 227.442657 
L 84.02688 225.84432 
L 84.20544 221.983537 
L 84.384 227.914765 
L 84.56256 237.851292 
L 84.74112 236.392637 
L 84.91968 237.91459 
L 85.09824 235.38367 
L 85.2768 236.302942 
L 85.63392 243.397635 
L 85.81248 243.985396 
L 85.99104 233.538281 
L 86.1696 235.491285 
L 86.34816 234.239382 
L 86.52672 234.613756 
L 86.70528 230.477634 
L 86.88384 241.033167 
L 87.0624 242.98208 
L 87.41952 235.208135 
L 87.59808 239.036781 
L 87.77664 239.688012 
L 87.9552 242.14436 
L 88.13376 240.174275 
L 88.49088 230.941837 
L 88.66944 231.133601 
L 88.848 241.565145 
L 89.02656 237.003359 
L 89.20512 239.513367 
L 89.38368 247.045576 
L 89.7408 234.799507 
L 89.91936 236.320098 
L 90.09792 230.272293 
L 90.27648 239.048613 
L 90.6336 225.131409 
L 90.99072 233.125242 
L 91.16928 235.01909 
L 91.34784 234.889351 
L 91.5264 237.065047 
L 91.70496 237.797433 
L 91.88352 239.675892 
L 92.24064 236.739287 
L 92.4192 242.145731 
L 92.59776 243.698643 
L 92.77632 242.22842 
L 92.95488 246.894472 
L 93.13344 238.55838 
L 93.312 240.811207 
L 93.49056 244.85547 
L 93.66912 246.126972 
L 93.84768 238.960585 
L 94.02624 226.325204 
L 94.2048 227.57338 
L 94.38336 225.334525 
L 94.56192 234.395187 
L 94.74048 237.214677 
L 95.0976 229.260075 
L 95.27616 236.774794 
L 95.63328 226.443424 
L 95.81184 229.469348 
L 95.9904 227.220799 
L 96.16896 229.363594 
L 96.34752 233.879862 
L 96.52608 232.9743 
L 96.70464 235.121027 
L 96.8832 239.502722 
L 97.06176 228.93934 
L 97.24032 231.281409 
L 97.41888 231.534063 
L 97.776 216.024534 
L 97.95456 214.977354 
L 98.6688 230.7543 
L 98.84736 228.357022 
L 99.02592 229.208656 
L 99.5616 236.340295 
L 100.09728 231.656931 
L 100.27584 227.686965 
L 100.4544 226.634236 
L 100.81152 213.123155 
L 100.99008 214.354005 
L 101.16864 214.159304 
L 101.52576 253.960798 
L 101.70432 235.367591 
L 101.88288 228.73727 
L 102.06144 227.782712 
L 102.41856 204.687015 
L 102.59712 200.48175 
L 102.77568 206.688602 
L 102.95424 218.331435 
L 103.1328 217.751023 
L 103.31136 212.600862 
L 103.84704 221.003114 
L 104.0256 224.655222 
L 104.20416 224.840537 
L 104.38272 220.740925 
L 104.56128 209.54263 
L 104.73984 210.509718 
L 104.9184 215.508046 
L 105.09696 227.980825 
L 105.45408 224.318249 
L 105.63264 227.29427 
L 105.8112 220.308861 
L 105.98976 217.758521 
L 106.52544 229.252437 
L 106.704 226.604236 
L 107.06112 209.023929 
L 107.23968 206.960539 
L 107.41824 212.302705 
L 107.77536 209.258531 
L 107.95392 197.862649 
L 108.13248 199.591584 
L 108.4896 219.994102 
L 108.66816 213.089239 
L 108.84672 214.718811 
L 109.02528 208.655745 
L 109.20384 206.668992 
L 109.3824 199.091915 
L 109.56096 201.166007 
L 109.73952 213.407596 
L 109.91808 203.431628 
L 110.09664 202.208529 
L 110.2752 204.89102 
L 110.45376 196.642028 
L 110.63232 229.690208 
L 110.81088 232.714342 
L 111.168 220.010566 
L 111.34656 216.940274 
L 111.52512 208.790839 
L 111.70368 214.791311 
L 111.88224 215.288189 
L 112.0608 210.532968 
L 112.23936 215.728989 
L 112.41792 216.735204 
L 112.59648 222.336797 
L 112.9536 217.781103 
L 113.13216 213.865901 
L 113.31072 213.695267 
L 113.66784 200.449558 
L 113.8464 200.876087 
L 114.02496 205.982851 
L 114.20352 222.623215 
L 114.56064 215.048261 
L 114.91776 221.721065 
L 115.27488 219.53612 
L 115.45344 218.936003 
L 115.632 221.198686 
L 115.81056 229.357052 
L 115.98912 224.030463 
L 116.16768 223.783493 
L 116.34624 228.380289 
L 116.5248 227.256667 
L 116.88192 234.400044 
L 117.06048 233.986886 
L 117.23904 228.917052 
L 117.4176 231.159711 
L 117.59616 227.449805 
L 117.77472 229.110878 
L 117.95328 224.86477 
L 118.3104 229.705668 
L 118.66752 223.861312 
L 118.84608 222.650687 
L 119.2032 216.740137 
L 119.56032 227.263279 
L 119.73888 229.85696 
L 119.91744 237.477865 
L 120.096 230.794954 
L 120.27456 237.780545 
L 120.45312 236.885207 
L 120.63168 244.208038 
L 120.9888 241.734731 
L 121.52448 230.360813 
L 121.70304 232.375624 
L 121.8816 232.280454 
L 122.23872 252.428117 
L 122.41728 244.438646 
L 122.59584 245.232968 
L 122.7744 234.123671 
L 122.95296 231.631419 
L 123.13152 225.700074 
L 123.48864 222.097976 
L 124.02432 237.186943 
L 124.20288 229.266488 
L 124.38144 227.763755 
L 124.56 233.098319 
L 124.73856 229.383452 
L 124.91712 231.899651 
L 125.09568 236.845398 
L 125.27424 223.570545 
L 125.4528 221.716259 
L 125.63136 226.331792 
L 125.80992 213.659025 
L 125.98848 218.066784 
L 126.52416 259.707748 
L 126.88128 244.748069 
L 127.05984 246.393503 
L 127.41696 242.927202 
L 127.77408 251.751121 
L 127.95264 247.559546 
L 128.1312 238.016802 
L 128.30976 240.452969 
L 128.48832 241.259472 
L 128.66688 245.257089 
L 128.84544 236.523497 
L 129.024 236.128778 
L 129.20256 234.189761 
L 129.38112 223.571684 
L 129.55968 232.831101 
L 129.73824 231.338874 
L 129.9168 230.85598 
L 130.09536 221.900959 
L 130.27392 220.439442 
L 130.45248 224.440189 
L 130.8096 236.389015 
L 130.98816 237.418163 
L 131.16672 243.018891 
L 131.34528 233.224952 
L 131.52384 231.951639 
L 131.7024 219.707108 
L 132.23808 243.461381 
L 132.41664 243.375974 
L 132.77376 229.474361 
L 133.13088 242.63064 
L 133.30944 236.524422 
L 133.488 235.127631 
L 133.66656 220.203046 
L 133.84512 231.43862 
L 134.02368 232.841555 
L 134.3808 251.496785 
L 134.91648 240.046155 
L 135.09504 245.624315 
L 135.2736 243.90459 
L 135.45216 239.302033 
L 135.80928 243.212211 
L 135.98784 242.464876 
L 136.1664 237.272689 
L 136.34496 236.644305 
L 136.70208 247.861344 
L 136.88064 232.980289 
L 137.0592 237.545223 
L 137.41632 224.089188 
L 137.59488 231.145122 
L 137.77344 222.913673 
L 137.952 230.128043 
L 138.30912 218.707519 
L 138.48768 234.476287 
L 138.66624 239.385844 
L 138.8448 241.232071 
L 139.20192 228.400021 
L 139.38048 225.07283 
L 139.55904 234.721932 
L 139.7376 233.78594 
L 139.91616 231.898797 
L 140.27328 241.342473 
L 140.45184 246.726104 
L 140.6304 260.160019 
L 140.80896 261.082728 
L 140.98752 247.122894 
L 141.16608 243.609106 
L 141.34464 248.232829 
L 141.5232 247.503125 
L 141.70176 243.096986 
L 141.88032 243.181109 
L 142.05888 237.912169 
L 142.23744 249.030608 
L 142.416 251.444339 
L 142.59456 244.350172 
L 142.77312 231.126093 
L 143.13024 252.077956 
L 143.3088 254.715906 
L 143.48736 255.118527 
L 143.84448 241.458511 
L 144.02304 241.143266 
L 144.38016 238.273039 
L 144.55872 244.219927 
L 144.73728 238.789757 
L 144.91584 238.910843 
L 145.0944 239.517674 
L 145.27296 222.266932 
L 145.45152 220.674436 
L 145.63008 247.859283 
L 145.80864 229.933641 
L 146.16576 217.419913 
L 146.52288 232.606556 
L 146.70144 232.273957 
L 146.88 236.989023 
L 147.05856 246.121733 
L 147.23712 243.076337 
L 147.41568 243.028299 
L 147.59424 246.948715 
L 147.7728 247.78522 
L 147.95136 245.586516 
L 148.12992 232.695965 
L 148.48704 242.918008 
L 148.6656 244.569871 
L 148.84416 249.13191 
L 149.02272 246.491635 
L 149.20128 241.593778 
L 149.91552 236.93595 
L 150.09408 239.060212 
L 150.80832 222.36943 
L 150.98688 208.979152 
L 151.16544 213.444476 
L 151.344 223.222542 
L 151.52256 225.629195 
L 151.70112 210.560528 
L 151.87968 222.295545 
L 152.05824 220.303632 
L 152.2368 211.229794 
L 152.41536 210.566345 
L 152.59392 211.105346 
L 152.95104 223.636723 
L 153.1296 226.404129 
L 153.30816 233.731271 
L 153.48672 235.579575 
L 153.66528 230.014316 
L 153.84384 229.744453 
L 154.0224 235.565678 
L 154.20096 234.045194 
L 154.37952 235.85405 
L 154.55808 234.723457 
L 154.73664 238.126762 
L 154.9152 236.466456 
L 155.09376 232.964648 
L 155.27232 225.235807 
L 155.808 241.967567 
L 156.16512 237.316435 
L 156.34368 241.6037 
L 156.7008 237.471547 
L 156.87936 227.80591 
L 157.05792 236.159038 
L 157.23648 233.766059 
L 157.41504 228.45851 
L 157.5936 228.394409 
L 157.95072 219.352004 
L 158.12928 219.886259 
L 158.30784 227.048264 
L 158.4864 227.002499 
L 158.84352 216.282061 
L 159.02208 226.854137 
L 159.20064 229.805631 
L 159.55776 215.114672 
L 159.73632 216.565062 
L 159.91488 224.77581 
L 160.09344 221.092246 
L 160.272 232.977852 
L 160.45056 231.441017 
L 160.62912 223.634539 
L 161.1648 238.73533 
L 161.34336 240.393262 
L 161.52192 238.1832 
L 161.70048 239.766862 
L 162.0576 229.983004 
L 162.23616 234.025278 
L 162.41472 246.597787 
L 162.77184 238.817888 
L 162.9504 233.600317 
L 163.30752 254.577163 
L 163.48608 251.255929 
L 163.66464 250.707324 
L 163.8432 239.435015 
L 164.02176 236.468115 
L 164.20032 227.847951 
L 164.55744 243.961894 
L 164.736 247.749303 
L 164.91456 245.16507 
L 165.09312 244.513521 
L 165.27168 245.07674 
L 165.45024 241.263887 
L 165.6288 242.190873 
L 165.80736 239.30527 
L 165.98592 234.057003 
L 166.16448 235.561798 
L 166.5216 240.469114 
L 166.70016 238.355529 
L 166.87872 238.709339 
L 167.05728 237.763331 
L 167.23584 237.931548 
L 167.4144 239.608714 
L 167.59296 239.827511 
L 167.95008 246.982652 
L 168.12864 245.695083 
L 168.3072 242.313085 
L 168.48576 248.422132 
L 168.66432 258.415431 
L 168.84288 257.188287 
L 169.2 243.258021 
L 169.37856 241.325474 
L 169.55712 242.120571 
L 169.73568 242.168531 
L 170.0928 253.398289 
L 170.27136 245.189444 
L 170.44992 247.543413 
L 170.80704 244.158537 
L 171.16416 228.410197 
L 171.34272 238.17208 
L 171.52128 238.439316 
L 171.8784 230.69905 
L 172.05696 237.645001 
L 172.41408 227.801015 
L 172.7712 235.034773 
L 172.94976 235.815068 
L 173.12832 234.800747 
L 173.30688 236.977579 
L 173.48544 237.753147 
L 173.664 245.945117 
L 173.84256 245.13926 
L 174.02112 243.073709 
L 174.19968 243.568798 
L 174.5568 240.539554 
L 175.09248 238.514032 
L 175.27104 243.56022 
L 175.4496 244.005305 
L 175.62816 238.626353 
L 175.80672 239.595835 
L 175.98528 241.90304 
L 176.16384 237.32003 
L 176.3424 241.857801 
L 176.52096 243.339919 
L 176.87808 238.761143 
L 177.2352 239.495369 
L 177.41376 232.776477 
L 177.59232 231.960557 
L 177.77088 232.019497 
L 178.30656 215.763442 
L 178.66368 202.018394 
L 178.84224 204.025282 
L 179.0208 202.355605 
L 179.37792 194.751049 
L 179.55648 196.765646 
L 179.73504 193.377221 
L 180.44928 160.27644 
L 180.8064 153.427719 
L 180.98496 151.559529 
L 181.34208 140.297768 
L 181.52064 138.780039 
L 181.87776 120.413263 
L 182.23488 98.020487 
L 182.41344 95.291656 
L 182.94912 80.407548 
L 183.12768 81.12161 
L 183.4848 76.136065 
L 183.84192 77.00365 
L 184.19904 84.864177 
L 185.98464 184.350663 
L 186.1632 182.375314 
L 186.52032 188.254213 
L 186.69888 189.776873 
L 186.87744 196.247239 
L 187.056 195.870977 
L 187.23456 201.693438 
L 187.41312 211.242036 
L 187.59168 203.393983 
L 187.77024 202.852408 
L 187.9488 197.683809 
L 188.30592 204.130353 
L 188.48448 202.379143 
L 188.66304 203.919385 
L 188.8416 200.59156 
L 189.19872 213.905944 
L 189.37728 212.567462 
L 189.55584 214.408977 
L 189.91296 223.707673 
L 190.09152 221.52944 
L 190.27008 225.019682 
L 190.44864 231.578206 
L 190.6272 231.439031 
L 190.80576 230.80498 
L 190.98432 230.883592 
L 191.16288 231.492744 
L 191.34144 240.616308 
L 191.52 236.028738 
L 191.87712 219.35121 
L 192.05568 221.169149 
L 192.23424 219.644249 
L 192.76992 223.832135 
L 193.12704 227.319541 
L 193.3056 226.777151 
L 193.66272 220.427602 
L 193.84128 220.921175 
L 194.01984 231.84896 
L 194.37696 208.78441 
L 194.55552 218.701799 
L 194.73408 220.967197 
L 194.91264 220.730985 
L 195.0912 219.47478 
L 195.26976 215.144627 
L 195.62688 222.961068 
L 195.80544 221.844765 
L 195.984 215.597191 
L 196.16256 215.897136 
L 196.34112 221.177538 
L 196.51968 234.286115 
L 196.69824 226.094826 
L 196.8768 226.623484 
L 197.05536 230.631225 
L 197.23392 228.297449 
L 197.41248 222.428974 
L 197.59104 224.045729 
L 197.7696 227.035148 
L 197.94816 222.847665 
L 198.12672 223.613384 
L 198.30528 222.214333 
L 198.48384 221.916679 
L 198.6624 217.218104 
L 198.84096 220.923788 
L 199.01952 219.451016 
L 199.37664 207.77451 
L 199.5552 209.245218 
L 199.73376 218.970977 
L 199.91232 219.388617 
L 200.09088 213.883445 
L 200.26944 214.300041 
L 200.62656 203.445174 
L 201.16224 200.656067 
L 201.69792 219.167433 
L 201.87648 217.785308 
L 202.05504 217.625912 
L 202.2336 220.042392 
L 202.41216 216.181303 
L 202.59072 215.818512 
L 202.94784 220.91942 
L 203.1264 213.092027 
L 203.30496 210.607831 
L 203.48352 214.703428 
L 203.66208 222.973137 
L 204.0192 208.860318 
L 204.19776 217.414047 
L 204.37632 214.996406 
L 204.55488 216.254877 
L 204.912 213.427823 
L 205.09056 213.533072 
L 205.44768 208.655379 
L 205.98336 196.325408 
L 206.16192 202.195188 
L 206.34048 202.672225 
L 206.51904 209.096313 
L 206.6976 198.074005 
L 206.87616 207.179778 
L 207.05472 207.251119 
L 207.23328 208.256111 
L 207.41184 204.65693 
L 207.76896 215.256459 
L 207.94752 210.437629 
L 208.30464 187.890956 
L 208.4832 199.402837 
L 208.66176 199.217707 
L 209.01888 208.841928 
L 209.19744 202.104588 
L 209.55456 198.946442 
L 209.91168 203.516776 
L 210.2688 201.692721 
L 210.62592 189.82422 
L 210.80448 191.112354 
L 211.1616 201.532436 
L 211.34016 199.148095 
L 211.51872 191.433869 
L 211.69728 194.494203 
L 211.87584 200.203534 
L 212.0544 195.240944 
L 212.23296 199.700984 
L 212.41152 206.974317 
L 212.59008 200.783044 
L 212.76864 206.589521 
L 212.9472 206.284829 
L 213.12576 195.624144 
L 213.30432 195.63645 
L 213.48288 194.80357 
L 213.84 187.962014 
L 214.01856 188.97898 
L 214.19712 198.178389 
L 214.37568 194.498073 
L 214.55424 197.617088 
L 214.7328 193.162949 
L 215.08992 193.879326 
L 215.26848 188.017533 
L 215.44704 188.224221 
L 215.6256 188.829327 
L 215.80416 192.444476 
L 215.98272 208.257424 
L 216.5184 195.236864 
L 216.69696 200.009829 
L 216.87552 197.081966 
L 217.05408 200.568182 
L 217.4112 218.636169 
L 217.58976 214.691648 
L 217.76832 206.070945 
L 217.94688 191.686185 
L 218.12544 190.094873 
L 218.304 199.611802 
L 218.48256 199.068383 
L 218.83968 206.570377 
L 219.01824 206.785166 
L 219.37536 201.984385 
L 219.55392 201.643077 
L 219.91104 194.398464 
L 220.0896 206.674034 
L 220.26816 207.920711 
L 220.44672 199.864728 
L 220.62528 203.54733 
L 220.80384 200.739735 
L 220.9824 204.96194 
L 221.33952 206.467251 
L 221.69664 206.02178 
L 221.8752 212.469474 
L 222.05376 205.38735 
L 222.41088 211.101403 
L 222.58944 210.075418 
L 222.768 212.747947 
L 222.94656 206.750702 
L 223.12512 207.051251 
L 223.30368 211.051384 
L 223.48224 210.424987 
L 223.6608 218.708438 
L 223.83936 213.98705 
L 224.01792 212.576709 
L 224.37504 214.304364 
L 224.5536 221.028883 
L 224.73216 206.637196 
L 224.91072 205.87771 
L 225.08928 224.854359 
L 225.26784 231.862439 
L 225.4464 213.342742 
L 225.62496 209.431888 
L 225.80352 219.44781 
L 225.98208 218.013654 
L 226.16064 218.353122 
L 226.3392 228.281161 
L 226.51776 228.204927 
L 226.69632 224.749524 
L 226.87488 224.594091 
L 227.05344 218.463125 
L 227.232 217.482337 
L 227.41056 217.93007 
L 227.76768 215.670128 
L 228.30336 221.601941 
L 228.48192 224.330751 
L 228.66048 222.407496 
L 228.83904 216.920111 
L 229.19616 212.900367 
L 229.55328 219.552481 
L 229.73184 218.350738 
L 229.9104 219.565266 
L 230.08896 218.542619 
L 230.44608 213.84458 
L 230.62464 222.495326 
L 230.8032 223.689226 
L 231.16032 232.761932 
L 231.33888 227.936769 
L 231.51744 233.060259 
L 231.87456 224.517257 
L 232.05312 224.949274 
L 232.23168 226.485133 
L 232.41024 226.076703 
L 232.5888 223.943952 
L 232.76736 226.231967 
L 232.94592 231.410175 
L 233.66016 220.101475 
L 233.83872 220.674515 
L 234.01728 223.999283 
L 234.55296 207.909817 
L 234.73152 209.607649 
L 234.91008 205.468644 
L 235.08864 205.620026 
L 235.44576 210.358572 
L 235.62432 211.444789 
L 235.80288 215.348209 
L 235.98144 216.498015 
L 236.16 222.816439 
L 236.33856 223.408634 
L 236.51712 214.683025 
L 236.87424 224.774471 
L 237.0528 224.373071 
L 237.23136 225.238041 
L 237.40992 231.185281 
L 237.58848 231.629727 
L 237.76704 230.843455 
L 238.48128 213.869154 
L 238.65984 216.829749 
L 238.8384 223.745798 
L 239.01696 236.0051 
L 239.19552 235.421379 
L 239.37408 235.730259 
L 239.55264 216.973866 
L 239.7312 215.087072 
L 239.90976 217.551929 
L 240.08832 223.915746 
L 240.624 216.207382 
L 240.98112 230.982571 
L 241.15968 237.763385 
L 241.5168 224.992278 
L 241.69536 226.584771 
L 241.87392 225.103749 
L 242.4096 231.461962 
L 242.58816 231.520889 
L 242.76672 228.232237 
L 242.94528 234.120407 
L 243.12384 232.315323 
L 243.3024 225.624964 
L 243.65952 238.110531 
L 244.01664 227.77857 
L 244.1952 226.78784 
L 244.55232 228.785906 
L 244.73088 225.140617 
L 244.90944 232.053234 
L 245.088 230.258735 
L 245.26656 231.486797 
L 245.44512 225.585967 
L 245.62368 212.72281 
L 245.80224 217.977765 
L 245.9808 217.202392 
L 246.15936 223.969532 
L 246.33792 238.001902 
L 246.51648 233.866887 
L 246.69504 221.579947 
L 246.8736 220.492013 
L 247.05216 225.588877 
L 247.23072 213.973101 
L 247.40928 226.625867 
L 247.58784 223.534832 
L 247.94496 210.504824 
L 248.12352 208.005788 
L 248.48064 225.000847 
L 248.6592 217.041936 
L 248.83776 236.121052 
L 249.01632 242.943914 
L 249.37344 206.563989 
L 249.552 223.551368 
L 249.73056 221.703431 
L 249.90912 224.144102 
L 250.08768 232.313765 
L 250.26624 235.198495 
L 250.4448 228.527737 
L 250.62336 236.07011 
L 250.80192 238.125232 
L 250.98048 226.168451 
L 251.15904 241.26048 
L 251.87328 202.349739 
L 252.40896 234.101588 
L 252.58752 238.010926 
L 252.76608 232.899697 
L 252.94464 208.782541 
L 253.48032 220.261275 
L 253.65888 218.061688 
L 253.83744 211.042729 
L 254.016 212.155926 
L 254.19456 215.334802 
L 254.37312 215.57916 
L 254.55168 219.530985 
L 254.73024 219.500957 
L 254.9088 215.589739 
L 255.26592 223.079673 
L 255.44448 222.805105 
L 255.62304 224.21524 
L 255.8016 228.53123 
L 256.15872 217.676624 
L 256.51584 209.886662 
L 256.6944 211.290502 
L 256.87296 229.088611 
L 257.05152 227.365916 
L 257.23008 229.74154 
L 257.5872 214.860174 
L 257.76576 211.028916 
L 257.94432 212.71119 
L 258.12288 213.190093 
L 258.30144 214.835443 
L 258.48 218.892169 
L 258.83712 209.715721 
L 259.01568 212.756143 
L 259.19424 228.861238 
L 259.72992 233.126073 
L 259.90848 225.221298 
L 260.08704 232.308024 
L 260.2656 219.604159 
L 260.44416 197.081989 
L 260.62272 195.868234 
L 260.80128 195.73728 
L 260.97984 217.035458 
L 261.1584 216.55967 
L 261.51552 234.083532 
L 261.69408 230.080938 
L 261.87264 214.681404 
L 262.0512 209.401578 
L 262.40832 215.242064 
L 262.58688 215.731129 
L 262.944 212.454181 
L 263.12256 209.533661 
L 263.30112 210.533772 
L 263.47968 216.1523 
L 263.65824 208.487686 
L 263.8368 206.72788 
L 264.01536 218.489912 
L 264.19392 220.275521 
L 264.37248 215.793749 
L 264.55104 221.434788 
L 264.7296 222.114057 
L 265.26528 212.708513 
L 265.44384 212.116774 
L 265.6224 215.385422 
L 265.80096 215.614812 
L 265.97952 213.969216 
L 266.15808 208.176299 
L 266.33664 209.989124 
L 266.69376 220.472377 
L 267.05088 206.684635 
L 267.408 226.272855 
L 267.76512 215.694544 
L 267.94368 220.329312 
L 268.12224 214.067753 
L 268.3008 217.786581 
L 268.47936 213.672475 
L 268.65792 203.656568 
L 268.83648 225.305649 
L 269.01504 228.892434 
L 269.1936 222.564686 
L 269.37216 229.573739 
L 269.55072 214.748172 
L 269.90784 238.605523 
L 270.0864 238.670096 
L 270.26496 239.44618 
L 270.62208 205.876645 
L 270.80064 220.800092 
L 270.9792 222.146589 
L 271.15776 229.954965 
L 271.33632 224.542833 
L 271.51488 227.174477 
L 271.69344 232.510218 
L 271.872 227.193558 
L 272.22912 245.035566 
L 272.58624 206.210054 
L 272.94336 225.761221 
L 273.12192 226.189973 
L 273.30048 230.848779 
L 273.47904 229.845507 
L 273.6576 230.022736 
L 274.01472 231.619347 
L 274.37184 218.29117 
L 274.72896 232.900719 
L 274.90752 225.740439 
L 275.08608 234.12268 
L 275.26464 231.872327 
L 275.4432 245.832924 
L 275.80032 232.810322 
L 275.97888 218.319863 
L 276.51456 231.698386 
L 276.69312 226.122704 
L 277.05024 222.182174 
L 277.2288 225.590477 
L 277.40736 225.426052 
L 277.58592 222.667033 
L 277.76448 223.354832 
L 278.1216 240.240132 
L 278.30016 236.50232 
L 278.65728 224.498478 
L 279.0144 219.117108 
L 279.19296 217.812774 
L 279.37152 226.158273 
L 279.72864 228.460973 
L 279.9072 231.289728 
L 280.08576 237.231712 
L 280.26432 235.005256 
L 280.44288 235.867751 
L 280.62144 228.985977 
L 280.8 233.48972 
L 281.15712 226.094729 
L 281.51424 238.652215 
L 281.6928 239.549311 
L 281.87136 235.098108 
L 282.04992 238.005341 
L 282.40704 233.585237 
L 282.76416 220.679266 
L 282.94272 220.370115 
L 283.12128 218.700555 
L 283.29984 214.771616 
L 283.4784 230.257665 
L 283.65696 232.072559 
L 283.83552 224.457203 
L 284.01408 211.038143 
L 284.19264 207.626846 
L 284.3712 214.197566 
L 284.54976 209.533456 
L 284.72832 197.035085 
L 284.90688 194.453158 
L 285.08544 197.924402 
L 285.264 196.262972 
L 285.44256 187.910348 
L 285.62112 186.859527 
L 286.1568 168.635367 
L 286.33536 173.925802 
L 286.51392 162.481984 
L 286.69248 142.688828 
L 286.87104 140.531508 
L 287.0496 135.813827 
L 287.22816 122.453121 
L 287.40672 126.129408 
L 287.58528 125.771284 
L 287.76384 124.408374 
L 288.47808 82.368841 
L 288.8352 67.642773 
L 289.01376 70.49295 
L 289.19232 64.695568 
L 289.37088 63.983996 
L 289.54944 54.042289 
L 289.728 53.568 
L 290.26368 68.292505 
L 291.33504 148.497179 
L 291.69216 156.84576 
L 292.04928 183.857339 
L 292.4064 189.321062 
L 292.58496 203.310468 
L 293.12064 215.908952 
L 293.2992 219.48403 
L 293.47776 218.513536 
L 293.65632 221.755706 
L 294.01344 212.897291 
L 294.192 214.965222 
L 294.37056 213.839455 
L 294.72768 220.911865 
L 295.0848 213.107225 
L 295.26336 215.533951 
L 295.44192 213.413985 
L 295.62048 214.129549 
L 295.79904 213.617653 
L 296.33472 229.217105 
L 296.51328 227.551889 
L 296.69184 227.082059 
L 297.04896 221.026027 
L 297.22752 223.565037 
L 297.40608 223.598505 
L 298.12032 212.522194 
L 298.29888 209.196275 
L 298.47744 214.04393 
L 298.656 213.960747 
L 298.83456 217.476025 
L 299.01312 209.561841 
L 299.19168 212.931456 
L 299.5488 224.685404 
L 299.72736 225.19041 
L 299.90592 228.523091 
L 300.08448 229.032754 
L 300.26304 233.094721 
L 300.4416 229.171812 
L 300.62016 228.997745 
L 300.79872 230.363665 
L 300.97728 228.38724 
L 301.15584 228.861214 
L 301.3344 227.712528 
L 301.51296 227.956205 
L 301.69152 227.737565 
L 302.04864 217.358355 
L 302.2272 220.634557 
L 302.40576 221.377259 
L 302.58432 217.234016 
L 302.94144 228.462733 
L 303.12 228.490472 
L 303.47712 222.175695 
L 303.65568 223.311026 
L 303.83424 219.973476 
L 304.0128 220.548943 
L 304.19136 226.571482 
L 304.36992 228.502978 
L 304.54848 224.94962 
L 304.72704 229.214286 
L 305.08416 223.085492 
L 305.26272 217.722828 
L 305.44128 228.841129 
L 305.61984 222.259404 
L 305.7984 228.541829 
L 305.97696 228.896756 
L 306.33408 220.900918 
L 306.51264 228.364333 
L 306.86976 218.671276 
L 307.04832 218.360328 
L 307.584 228.395912 
L 307.76256 222.203264 
L 307.94112 225.947564 
L 308.11968 224.349568 
L 308.4768 230.603889 
L 308.83392 224.629617 
L 309.19104 226.823205 
L 309.3696 222.353522 
L 309.72672 220.472995 
L 310.08384 214.202839 
L 310.2624 218.881034 
L 310.44096 219.580813 
L 310.79808 212.767575 
L 310.97664 214.924374 
L 311.1552 218.653717 
L 311.33376 216.422626 
L 311.51232 217.669513 
L 311.69088 222.701107 
L 311.86944 220.907909 
L 312.048 220.254069 
L 312.22656 214.76462 
L 312.58368 212.734151 
L 312.76224 212.525653 
L 312.9408 215.446064 
L 313.11936 214.690137 
L 313.29792 216.472896 
L 313.47648 213.133505 
L 313.65504 212.278314 
L 314.01216 207.812274 
L 314.19072 207.761011 
L 314.54784 211.942283 
L 314.7264 209.66873 
L 314.90496 209.393031 
L 315.08352 205.63606 
L 315.44064 214.307614 
L 315.6192 213.997655 
L 315.79776 214.921003 
L 316.15488 206.309098 
L 316.33344 206.453038 
L 316.512 207.802215 
L 316.69056 207.761179 
L 316.86912 203.858794 
L 317.4048 217.264031 
L 317.58336 218.140384 
L 317.76192 217.279158 
L 318.2976 207.86229 
L 318.47616 207.392253 
L 318.65472 204.830018 
L 318.83328 205.320976 
L 319.01184 213.468474 
L 319.1904 214.654074 
L 319.54752 210.685913 
L 320.0832 204.372876 
L 320.26176 207.278202 
L 320.44032 212.626767 
L 320.61888 212.786671 
L 320.79744 210.759714 
L 320.976 210.394866 
L 321.15456 209.281664 
L 321.33312 208.930167 
L 321.51168 209.481164 
L 321.8688 204.567904 
L 322.22592 216.243275 
L 322.7616 206.860712 
L 322.94016 209.82537 
L 323.11872 209.402695 
L 323.29728 212.927973 
L 323.47584 213.573882 
L 323.6544 219.306052 
L 324.01152 215.732073 
L 324.19008 212.827197 
L 324.36864 212.91132 
L 324.5472 213.508865 
L 324.72576 217.836916 
L 324.90432 218.24529 
L 325.08288 218.259779 
L 325.26144 211.919846 
L 325.44 213.183865 
L 325.61856 217.02285 
L 325.79712 214.714726 
L 325.97568 216.951605 
L 326.15424 215.36101 
L 326.51136 208.702065 
L 326.86848 216.510535 
L 327.04704 208.482118 
L 327.2256 208.630107 
L 327.58272 221.137056 
L 327.76128 223.524582 
L 327.93984 220.702011 
L 328.1184 225.59351 
L 328.47552 216.295923 
L 328.65408 219.096739 
L 328.83264 224.028525 
L 329.0112 224.997842 
L 329.18976 224.153266 
L 329.36832 220.89828 
L 329.54688 220.658235 
L 329.72544 224.391387 
L 330.08256 227.276169 
L 330.26112 224.75871 
L 330.43968 227.283747 
L 330.61824 234.756699 
L 330.7968 232.812489 
L 331.15392 223.125293 
L 331.33248 224.180815 
L 331.51104 218.471597 
L 331.6896 227.989069 
L 331.86816 225.050061 
L 332.04672 226.599038 
L 332.22528 226.87233 
L 332.40384 229.194431 
L 332.76096 227.291679 
L 332.93952 227.962673 
L 333.11808 226.301739 
L 333.29664 226.783384 
L 333.4752 224.096359 
L 333.65376 225.83447 
L 333.83232 229.655553 
L 334.01088 228.509072 
L 334.18944 226.501629 
L 334.368 225.969028 
L 334.54656 223.873522 
L 334.72512 225.394087 
L 334.90368 227.936533 
L 335.08224 233.579211 
L 335.2608 231.885993 
L 335.61792 221.505498 
L 335.79648 228.111977 
L 336.33216 230.457141 
L 336.51072 229.745517 
L 336.68928 228.133796 
L 336.86784 228.081769 
L 337.22496 232.518106 
L 337.58208 231.700846 
L 337.76064 234.379819 
L 337.9392 233.970269 
L 338.11776 230.864132 
L 338.29632 231.280799 
L 338.47488 228.708993 
L 338.65344 228.876135 
L 338.832 229.38801 
L 339.01056 229.334105 
L 339.18912 226.499984 
L 339.36768 225.682802 
L 339.7248 235.110371 
L 340.08192 226.969206 
L 340.6176 234.812127 
L 340.79616 231.505694 
L 340.97472 231.947473 
L 341.15328 234.267343 
L 341.33184 230.39845 
L 341.5104 229.944994 
L 341.86752 227.510367 
L 342.04608 228.760429 
L 342.22464 224.365743 
L 342.4032 225.622427 
L 342.58176 225.595546 
L 343.11744 228.881084 
L 343.296 228.215719 
L 343.47456 229.1172 
L 343.65312 229.357943 
L 343.83168 231.114534 
L 344.01024 230.86287 
L 344.1888 230.843927 
L 344.36736 229.561423 
L 344.54592 231.762022 
L 344.90304 225.61389 
L 345.0816 231.404332 
L 345.26016 231.882679 
L 345.43872 230.582408 
L 345.61728 230.166194 
L 345.79584 231.861744 
L 345.9744 231.881836 
L 346.33152 224.275712 
L 346.68864 224.723202 
L 346.8672 223.583452 
L 347.04576 224.87799 
L 347.22432 228.138096 
L 347.40288 227.966256 
L 347.58144 234.206667 
L 347.76 233.401785 
L 348.11712 227.578262 
L 348.29568 220.503637 
L 348.47424 224.398457 
L 348.6528 225.251531 
L 348.83136 225.412793 
L 349.36704 233.890873 
L 349.5456 233.699259 
L 349.72416 234.967476 
L 349.90272 233.017188 
L 350.08128 233.451453 
L 350.25984 230.674745 
L 350.4384 235.632471 
L 350.61696 235.561389 
L 350.79552 236.211222 
L 351.3312 232.174073 
L 351.50976 232.222958 
L 351.68832 232.053511 
L 351.86688 230.075964 
L 352.04544 231.294805 
L 352.224 233.917167 
L 352.40256 232.453837 
L 352.58112 232.949073 
L 352.75968 232.156595 
L 353.1168 234.168599 
L 353.29536 234.349528 
L 353.47392 232.583074 
L 353.65248 233.225364 
L 353.83104 233.178936 
L 354.0096 228.908134 
L 354.36672 230.879898 
L 354.72384 227.329568 
L 354.9024 227.993848 
L 355.25952 230.375112 
L 355.43808 230.55284 
L 355.61664 229.56076 
L 355.7952 225.917227 
L 355.97376 225.369851 
L 356.15232 226.138712 
L 356.33088 225.130021 
L 356.50944 224.939977 
L 356.688 225.23764 
L 356.86656 226.638303 
L 357.04512 229.101567 
L 357.22368 227.896982 
L 357.40224 230.068879 
L 357.5808 229.124237 
L 357.75936 231.572445 
L 357.93792 228.558553 
L 358.11648 230.242533 
L 358.29504 229.913999 
L 358.4736 229.832871 
L 358.83072 234.706887 
L 359.00928 230.289907 
L 359.18784 230.172862 
L 359.3664 231.574661 
L 359.54496 236.251174 
L 359.72352 237.666021 
L 360.08064 229.720439 
L 360.2592 228.450404 
L 360.43776 231.138097 
L 360.61632 230.018814 
L 360.79488 226.13994 
L 360.97344 226.315584 
L 361.33056 227.870132 
L 361.50912 227.767933 
L 362.0448 222.662492 
L 362.22336 227.99506 
L 362.40192 229.798363 
L 362.58048 228.140031 
L 362.75904 227.528545 
L 362.9376 229.904064 
L 363.29472 223.473156 
L 363.47328 225.086743 
L 363.65184 224.799376 
L 363.8304 228.564908 
L 364.00896 229.740124 
L 364.18752 226.005675 
L 364.36608 227.119985 
L 364.54464 227.323866 
L 364.7232 224.244629 
L 364.90176 226.170858 
L 365.08032 226.715305 
L 365.25888 223.731595 
L 365.43744 222.755359 
L 365.616 220.839484 
L 365.97312 226.193202 
L 366.15168 225.961065 
L 366.33024 226.406176 
L 366.5088 228.45676 
L 366.86592 237.113291 
L 367.22304 231.503216 
L 367.4016 232.860169 
L 367.58016 232.003518 
L 367.93728 236.293064 
L 368.11584 234.62981 
L 368.2944 235.154602 
L 368.47296 238.859993 
L 368.65152 235.577196 
L 368.83008 237.079632 
L 369.00864 240.131732 
L 369.1872 240.965992 
L 369.54432 236.179058 
L 370.08 228.39805 
L 370.25856 228.911291 
L 370.9728 247.851135 
L 371.15136 246.155056 
L 371.32992 241.220103 
L 371.50848 241.842951 
L 371.68704 242.983562 
L 371.8656 242.901146 
L 372.04416 245.527863 
L 372.22272 250.292969 
L 372.40128 249.990998 
L 372.7584 245.745394 
L 372.93696 245.603508 
L 373.11552 248.251062 
L 373.29408 248.308345 
L 373.47264 251.604745 
L 373.82976 248.872679 
L 374.00832 251.476022 
L 374.18688 249.665728 
L 374.36544 246.451609 
L 374.544 245.345686 
L 374.72256 245.661976 
L 375.25824 236.214408 
L 375.4368 243.690751 
L 375.61536 256.249558 
L 375.97248 248.875116 
L 376.15104 251.098327 
L 376.3296 249.897011 
L 376.50816 247.247243 
L 376.68672 247.371518 
L 376.86528 246.903209 
L 377.04384 247.079218 
L 377.2224 249.682805 
L 377.40096 249.605939 
L 377.57952 252.064057 
L 377.93664 247.56973 
L 378.47232 251.560806 
L 378.65088 251.311661 
L 378.82944 251.370897 
L 379.008 249.812558 
L 379.18656 249.613886 
L 379.36512 250.130643 
L 379.54368 250.132149 
L 379.72224 246.230832 
L 379.9008 245.461022 
L 380.25792 252.248709 
L 380.43648 250.978398 
L 380.61504 252.789244 
L 381.15072 247.795296 
L 381.32928 250.807585 
L 381.86496 246.4861 
L 382.04352 240.591571 
L 382.22208 241.456756 
L 382.40064 246.257591 
L 382.5792 247.642239 
L 382.75776 254.831958 
L 382.93632 246.331863 
L 383.11488 245.417738 
L 383.472 254.389483 
L 383.65056 253.350502 
L 384.18624 247.542134 
L 384.3648 250.854106 
L 384.54336 249.82551 
L 384.72192 245.653607 
L 384.90048 245.249847 
L 385.61472 229.670498 
L 385.79328 229.480118 
L 385.97184 227.158004 
L 386.1504 230.258732 
L 387.936 164.671481 
L 388.29312 148.264425 
L 388.47168 142.560596 
L 389.00736 117.695674 
L 389.36448 104.088546 
L 389.7216 80.786313 
L 389.90016 74.543366 
L 390.25728 84.364543 
L 390.43584 78.936469 
L 390.6144 80.295329 
L 390.79296 87.013478 
L 390.97152 87.596891 
L 391.15008 91.461938 
L 391.5072 118.840925 
L 392.4 178.506913 
L 392.75712 198.807517 
L 393.11424 207.797295 
L 393.2928 219.901966 
L 393.47136 224.450469 
L 393.64992 225.281632 
L 394.00704 231.533441 
L 394.1856 231.485241 
L 394.36416 232.376638 
L 394.54272 237.550575 
L 394.72128 237.316089 
L 394.89984 233.13673 
L 395.0784 232.424944 
L 395.61408 234.169121 
L 395.9712 227.830554 
L 396.14976 229.953458 
L 396.32832 229.818394 
L 396.50688 231.443611 
L 396.864 237.745594 
L 397.04256 238.020116 
L 397.39968 241.344021 
L 397.57824 238.858984 
L 397.93536 243.066903 
L 398.11392 241.90198 
L 398.29248 242.320363 
L 398.47104 240.547367 
L 398.6496 240.435055 
L 399.00672 245.189075 
L 399.18528 246.70795 
L 399.36384 244.210735 
L 399.5424 243.800876 
L 399.72096 243.981378 
L 399.89952 241.766211 
L 400.07808 241.999242 
L 400.25664 240.4626 
L 400.4352 235.349868 
L 400.79232 242.500657 
L 400.97088 243.401841 
L 401.14944 242.205358 
L 401.328 238.555428 
L 401.68512 240.661397 
L 401.86368 241.633604 
L 402.04224 244.85677 
L 402.2208 244.503351 
L 402.39936 242.459024 
L 402.57792 242.119266 
L 402.75648 241.194239 
L 402.93504 241.543096 
L 403.1136 242.511737 
L 403.47072 237.306969 
L 403.64928 242.868065 
L 403.82784 243.594311 
L 404.0064 239.88512 
L 404.18496 241.271501 
L 404.72064 250.982692 
L 405.07776 245.206283 
L 405.43488 244.118775 
L 405.61344 240.409055 
L 405.792 241.157353 
L 405.97056 244.487684 
L 406.32768 246.446329 
L 406.50624 245.93212 
L 406.6848 242.484828 
L 406.86336 241.956103 
L 407.04192 242.229606 
L 407.22048 243.220654 
L 407.39904 242.559133 
L 407.5776 243.325505 
L 407.75616 241.618493 
L 407.93472 242.605521 
L 408.11328 245.346933 
L 408.29184 246.105952 
L 408.4704 246.059984 
L 408.64896 244.331267 
L 408.82752 240.671426 
L 409.18464 240.561598 
L 409.3632 238.166213 
L 409.54176 233.871974 
L 409.72032 236.728754 
L 409.89888 237.570898 
L 410.07744 236.6965 
L 410.256 234.582253 
L 410.79168 233.26875 
L 410.97024 234.650332 
L 411.1488 233.558437 
L 411.32736 231.03742 
L 411.50592 231.517665 
L 411.68448 227.457645 
L 411.86304 229.067897 
L 412.0416 232.513995 
L 412.22016 232.64015 
L 412.39872 229.528943 
L 412.57728 229.156591 
L 412.75584 229.205366 
L 412.9344 228.729187 
L 413.29152 232.244554 
L 413.47008 232.361346 
L 413.8272 227.293046 
L 414.18432 233.526269 
L 414.36288 232.277338 
L 414.54144 233.079827 
L 414.72 233.357265 
L 414.89856 231.94852 
L 414.89856 231.94852 
" clip-path="url(#p26586ce70f)" style="fill: none; stroke: #1f77b4; stroke-width: 1.5; stroke-linecap: square"/>
   </g>
   <g id="patch_3">
    <path d="M 57.6 307.584 
L 57.6 41.472 
" style="fill: none; stroke: #000000; stroke-width: 0.8; stroke-linejoin: miter; stroke-linecap: square"/>
   </g>
   <g id="patch_4">
    <path d="M 414.72 307.584 
L 414.72 41.472 
" style="fill: none; stroke: #000000; stroke-width: 0.8; stroke-linejoin: miter; stroke-linecap: square"/>
   </g>
   <g id="patch_5">
    <path d="M 57.6 307.584 
L 414.72 307.584 
" style="fill: none; stroke: #000000; stroke-width: 0.8; stroke-linejoin: miter; stroke-linecap: square"/>
   </g>
   <g id="patch_6">
    <path d="M 57.6 41.472 
L 414.72 41.472 
" style="fill: none; stroke: #000000; stroke-width: 0.8; stroke-linejoin: miter; stroke-linecap: square"/>
   </g>
   <g id="text_18">
    <!-- adaptive LMS filter to remove the 50 Hz -->
    <g transform="translate(116.34375 35.472)scale(0.12 -0.12)">
     <defs>
      <path id="DejaVuSans-61" d="M 2194 1759 
Q 1497 1759 1228 1600 
Q 959 1441 959 1056 
Q 959 750 1161 570 
Q 1363 391 1709 391 
Q 2188 391 2477 730 
Q 2766 1069 2766 1631 
L 2766 1759 
L 2194 1759 
z
M 3341 1997 
L 3341 0 
L 2766 0 
L 2766 531 
Q 2569 213 2275 61 
Q 1981 -91 1556 -91 
Q 1019 -91 701 211 
Q 384 513 384 1019 
Q 384 1609 779 1909 
Q 1175 2209 1959 2209 
L 2766 2209 
L 2766 2266 
Q 2766 2663 2505 2880 
Q 2244 3097 1772 3097 
Q 1472 3097 1187 3025 
Q 903 2953 641 2809 
L 641 3341 
Q 956 3463 1253 3523 
Q 1550 3584 1831 3584 
Q 2591 3584 2966 3190 
Q 3341 2797 3341 1997 
z
" transform="scale(0.015625)"/>
      <path id="DejaVuSans-64" d="M 2906 2969 
L 2906 4863 
L 3481 4863 
L 3481 0 
L 2906 0 
L 2906 525 
Q 2725 213 2448 61 
Q 2172 -91 1784 -91 
Q 1150 -91 751 415 
Q 353 922 353 1747 
Q 353 2572 751 3078 
Q 1150 3584 1784 3584 
Q 2172 3584 2448 3432 
Q 2725 3281 2906 2969 
z
M 947 1747 
Q 947 1113 1208 752 
Q 1469 391 1925 391 
Q 2381 391 2643 752 
Q 2906 1113 2906 1747 
Q 2906 2381 2643 2742 
Q 2381 3103 1925 3103 
Q 1469 3103 1208 2742 
Q 947 2381 947 1747 
z
" transform="scale(0.015625)"/>
      <path id="DejaVuSans-70" d="M 1159 525 
L 1159 -1331 
L 581 -1331 
L 581 3500 
L 1159 3500 
L 1159 2969 
Q 1341 3281 1617 3432 
Q 1894 3584 2278 3584 
Q 2916 3584 3314 3078 
Q 3713 2572 3713 1747 
Q 3713 922 3314 415 
Q 2916 -91 2278 -91 
Q 1894 -91 1617 61 
Q 1341 213 1159 525 
z
M 3116 1747 
Q 3116 2381 2855 2742 
Q 2594 3103 2138 3103 
Q 1681 3103 1420 2742 
Q 1159 2381 1159 1747 
Q 1159 1113 1420 752 
Q 1681 391 2138 391 
Q 2594 391 2855 752 
Q 3116 1113 3116 1747 
z
" transform="scale(0.015625)"/>
      <path id="DejaVuSans-74" d="M 1172 4494 
L 1172 3500 
L 2356 3500 
L 2356 3053 
L 1172 3053 
L 1172 1153 
Q 1172 725 1289 603 
Q 1406 481 1766 481 
L 2356 481 
L 2356 0 
L 1766 0 
Q 1100 0 847 248 
Q 594 497 594 1153 
L 594 3053 
L 172 3053 
L 172 3500 
L 594 3500 
L 594 4494 
L 1172 4494 
z
" transform="scale(0.015625)"/>
      <path id="DejaVuSans-76" d="M 191 3500 
L 800 3500 
L 1894 563 
L 2988 3500 
L 3597 3500 
L 2284 0 
L 1503 0 
L 191 3500 
z
" transform="scale(0.015625)"/>
      <path id="DejaVuSans-20" transform="scale(0.015625)"/>
      <path id="DejaVuSans-4c" d="M 628 4666 
L 1259 4666 
L 1259 531 
L 3531 531 
L 3531 0 
L 628 0 
L 628 4666 
z
" transform="scale(0.015625)"/>
      <path id="DejaVuSans-4d" d="M 628 4666 
L 1569 4666 
L 2759 1491 
L 3956 4666 
L 4897 4666 
L 4897 0 
L 4281 0 
L 4281 4097 
L 3078 897 
L 2444 897 
L 1241 4097 
L 1241 0 
L 628 0 
L 628 4666 
z
" transform="scale(0.015625)"/>
      <path id="DejaVuSans-53" d="M 3425 4513 
L 3425 3897 
Q 3066 4069 2747 4153 
Q 2428 4238 2131 4238 
Q 1616 4238 1336 4038 
Q 1056 3838 1056 3469 
Q 1056 3159 1242 3001 
Q 1428 2844 1947 2747 
L 2328 2669 
Q 3034 2534 3370 2195 
Q 3706 1856 3706 1288 
Q 3706 609 3251 259 
Q 2797 -91 1919 -91 
Q 1588 -91 1214 -16 
Q 841 59 441 206 
L 441 856 
Q 825 641 1194 531 
Q 1563 422 1919 422 
Q 2459 422 2753 634 
Q 3047 847 3047 1241 
Q 3047 1584 2836 1778 
Q 2625 1972 2144 2069 
L 1759 2144 
Q 1053 2284 737 2584 
Q 422 2884 422 3419 
Q 422 4038 858 4394 
Q 1294 4750 2059 4750 
Q 2388 4750 2728 4690 
Q 3069 4631 3425 4513 
z
" transform="scale(0.015625)"/>
      <path id="DejaVuSans-66" d="M 2375 4863 
L 2375 4384 
L 1825 4384 
Q 1516 4384 1395 4259 
Q 1275 4134 1275 3809 
L 1275 3500 
L 2222 3500 
L 2222 3053 
L 1275 3053 
L 1275 0 
L 697 0 
L 697 3053 
L 147 3053 
L 147 3500 
L 697 3500 
L 697 3744 
Q 697 4328 969 4595 
Q 1241 4863 1831 4863 
L 2375 4863 
z
" transform="scale(0.015625)"/>
      <path id="DejaVuSans-6c" d="M 603 4863 
L 1178 4863 
L 1178 0 
L 603 0 
L 603 4863 
z
" transform="scale(0.015625)"/>
      <path id="DejaVuSans-72" d="M 2631 2963 
Q 2534 3019 2420 3045 
Q 2306 3072 2169 3072 
Q 1681 3072 1420 2755 
Q 1159 2438 1159 1844 
L 1159 0 
L 581 0 
L 581 3500 
L 1159 3500 
L 1159 2956 
Q 1341 3275 1631 3429 
Q 1922 3584 2338 3584 
Q 2397 3584 2469 3576 
Q 2541 3569 2628 3553 
L 2631 2963 
z
" transform="scale(0.015625)"/>
      <path id="DejaVuSans-6f" d="M 1959 3097 
Q 1497 3097 1228 2736 
Q 959 2375 959 1747 
Q 959 1119 1226 758 
Q 1494 397 1959 397 
Q 2419 397 2687 759 
Q 2956 1122 2956 1747 
Q 2956 2369 2687 2733 
Q 2419 3097 1959 3097 
z
M 1959 3584 
Q 2709 3584 3137 3096 
Q 3566 2609 3566 1747 
Q 3566 888 3137 398 
Q 2709 -91 1959 -91 
Q 1206 -91 779 398 
Q 353 888 353 1747 
Q 353 2609 779 3096 
Q 1206 3584 1959 3584 
z
" transform="scale(0.015625)"/>
      <path id="DejaVuSans-68" d="M 3513 2113 
L 3513 0 
L 2938 0 
L 2938 2094 
Q 2938 2591 2744 2837 
Q 2550 3084 2163 3084 
Q 1697 3084 1428 2787 
Q 1159 2491 1159 1978 
L 1159 0 
L 581 0 
L 581 4863 
L 1159 4863 
L 1159 2956 
Q 1366 3272 1645 3428 
Q 1925 3584 2291 3584 
Q 2894 3584 3203 3211 
Q 3513 2838 3513 2113 
z
" transform="scale(0.015625)"/>
      <path id="DejaVuSans-48" d="M 628 4666 
L 1259 4666 
L 1259 2753 
L 3553 2753 
L 3553 4666 
L 4184 4666 
L 4184 0 
L 3553 0 
L 3553 2222 
L 1259 2222 
L 1259 0 
L 628 0 
L 628 4666 
z
" transform="scale(0.015625)"/>
      <path id="DejaVuSans-7a" d="M 353 3500 
L 3084 3500 
L 3084 2975 
L 922 459 
L 3084 459 
L 3084 0 
L 275 0 
L 275 525 
L 2438 3041 
L 353 3041 
L 353 3500 
z
" transform="scale(0.015625)"/>
     </defs>
     <use xlink:href="#DejaVuSans-61"/>
     <use xlink:href="#DejaVuSans-64" x="61.279297"/>
     <use xlink:href="#DejaVuSans-61" x="124.755859"/>
     <use xlink:href="#DejaVuSans-70" x="186.035156"/>
     <use xlink:href="#DejaVuSans-74" x="249.511719"/>
     <use xlink:href="#DejaVuSans-69" x="288.720703"/>
     <use xlink:href="#DejaVuSans-76" x="316.503906"/>
     <use xlink:href="#DejaVuSans-65" x="375.683594"/>
     <use xlink:href="#DejaVuSans-20" x="437.207031"/>
     <use xlink:href="#DejaVuSans-4c" x="468.994141"/>
     <use xlink:href="#DejaVuSans-4d" x="524.707031"/>
     <use xlink:href="#DejaVuSans-53" x="610.986328"/>
     <use xlink:href="#DejaVuSans-20" x="674.462891"/>
     <use xlink:href="#DejaVuSans-66" x="706.25"/>
     <use xlink:href="#DejaVuSans-69" x="741.455078"/>
     <use xlink:href="#DejaVuSans-6c" x="769.238281"/>
     <use xlink:href="#DejaVuSans-74" x="797.021484"/>
     <use xlink:href="#DejaVuSans-65" x="836.230469"/>
     <use xlink:href="#DejaVuSans-72" x="897.753906"/>
     <use xlink:href="#DejaVuSans-20" x="938.867188"/>
     <use xlink:href="#DejaVuSans-74" x="970.654297"/>
     <use xlink:href="#DejaVuSans-6f" x="1009.863281"/>
     <use xlink:href="#DejaVuSans-20" x="1071.044922"/>
     <use xlink:href="#DejaVuSans-72" x="1102.832031"/>
     <use xlink:href="#DejaVuSans-65" x="1141.695312"/>
     <use xlink:href="#DejaVuSans-6d" x="1203.21875"/>
     <use xlink:href="#DejaVuSans-6f" x="1300.630859"/>
     <use xlink:href="#DejaVuSans-76" x="1361.8125"/>
     <use xlink:href="#DejaVuSans-65" x="1420.992188"/>
     <use xlink:href="#DejaVuSans-20" x="1482.515625"/>
     <use xlink:href="#DejaVuSans-74" x="1514.302734"/>
     <use xlink:href="#DejaVuSans-68" x="1553.511719"/>
     <use xlink:href="#DejaVuSans-65" x="1616.890625"/>
     <use xlink:href="#DejaVuSans-20" x="1678.414062"/>
     <use xlink:href="#DejaVuSans-35" x="1710.201172"/>
     <use xlink:href="#DejaVuSans-30" x="1773.824219"/>
     <use xlink:href="#DejaVuSans-20" x="1837.447266"/>
     <use xlink:href="#DejaVuSans-48" x="1869.234375"/>
     <use xlink:href="#DejaVuSans-7a" x="1944.429688"/>
    </g>
   </g>
  </g>
 </g>
 <defs>
  <clipPath id="p26586ce70f">
   <rect x="57.6" y="41.472" width="357.12" height="266.112"/>
  </clipPath>
 </defs>
</svg>
