<?xml version="1.0" encoding="utf-8" standalone="no"?>
<!DOCTYPE svg PUBLIC "-//W3C//DTD SVG 1.1//EN"
  "http://www.w3.org/Graphics/SVG/1.1/DTD/svg11.dtd">
<svg xmlns:xlink="http://www.w3.org/1999/xlink" width="460.8pt" height="345.6pt" viewBox="0 0 460.8 345.6" xmlns="http://www.w3.org/2000/svg" version="1.1">
 <metadata>
  <rdf:RDF xmlns:dc="http://purl.org/dc/elements/1.1/" xmlns:cc="http://creativecommons.org/ns#" xmlns:rdf="http://www.w3.org/1999/02/22-rdf-syntax-ns#">
   <cc:Work>
    <dc:type rdf:resource="http://purl.org/dc/dcmitype/StillImage"/>
    <dc:date>2022-11-13T15:11:10.977397</dc:date>
    <dc:format>image/svg+xml</dc:format>
    <dc:creator>
     <cc:Agent>
      <dc:title>Matplotlib v3.5.1, https://matplotlib.org/</dc:title>
     </cc:Agent>
    </dc:creator>
   </cc:Work>
  </rdf:RDF>
 </metadata>
 <defs>
  <style type="text/css">*{stroke-linejoin: round; stroke-linecap: butt}</style>
 </defs>
 <g id="figure_1">
  <g id="patch_1">
   <path d="M 0 345.6 
L 460.8 345.6 
L 460.8 0 
L 0 0 
z
" style="fill: #ffffff"/>
  </g>
  <g id="axes_1">
   <g id="patch_2">
    <path d="M 57.6 307.584 
L 414.72 307.584 
L 414.72 41.472 
L 57.6 41.472 
z
" style="fill: #ffffff"/>
   </g>
   <g id="matplotlib.axis_1">
    <g id="xtick_1">
     <g id="line2d_1">
      <defs>
       <path id="mae9b4eb0d3" d="M 0 0 
L 0 3.5 
" style="stroke: #000000; stroke-width: 0.8"/>
      </defs>
      <g>
       <use xlink:href="#mae9b4eb0d3" x="57.6" y="307.584" style="stroke: #000000; stroke-width: 0.8"/>
      </g>
     </g>
     <g id="text_1">
      <!-- 0 -->
      <g transform="translate(54.41875 322.182437)scale(0.1 -0.1)">
       <defs>
        <path id="DejaVuSans-30" d="M 2034 4250 
Q 1547 4250 1301 3770 
Q 1056 3291 1056 2328 
Q 1056 1369 1301 889 
Q 1547 409 2034 409 
Q 2525 409 2770 889 
Q 3016 1369 3016 2328 
Q 3016 3291 2770 3770 
Q 2525 4250 2034 4250 
z
M 2034 4750 
Q 2819 4750 3233 4129 
Q 3647 3509 3647 2328 
Q 3647 1150 3233 529 
Q 2819 -91 2034 -91 
Q 1250 -91 836 529 
Q 422 1150 422 2328 
Q 422 3509 836 4129 
Q 1250 4750 2034 4750 
z
" transform="scale(0.015625)"/>
       </defs>
       <use xlink:href="#DejaVuSans-30"/>
      </g>
     </g>
    </g>
    <g id="xtick_2">
     <g id="line2d_2">
      <g>
       <use xlink:href="#mae9b4eb0d3" x="102.24" y="307.584" style="stroke: #000000; stroke-width: 0.8"/>
      </g>
     </g>
     <g id="text_2">
      <!-- 250 -->
      <g transform="translate(92.69625 322.182437)scale(0.1 -0.1)">
       <defs>
        <path id="DejaVuSans-32" d="M 1228 531 
L 3431 531 
L 3431 0 
L 469 0 
L 469 531 
Q 828 903 1448 1529 
Q 2069 2156 2228 2338 
Q 2531 2678 2651 2914 
Q 2772 3150 2772 3378 
Q 2772 3750 2511 3984 
Q 2250 4219 1831 4219 
Q 1534 4219 1204 4116 
Q 875 4013 500 3803 
L 500 4441 
Q 881 4594 1212 4672 
Q 1544 4750 1819 4750 
Q 2544 4750 2975 4387 
Q 3406 4025 3406 3419 
Q 3406 3131 3298 2873 
Q 3191 2616 2906 2266 
Q 2828 2175 2409 1742 
Q 1991 1309 1228 531 
z
" transform="scale(0.015625)"/>
        <path id="DejaVuSans-35" d="M 691 4666 
L 3169 4666 
L 3169 4134 
L 1269 4134 
L 1269 2991 
Q 1406 3038 1543 3061 
Q 1681 3084 1819 3084 
Q 2600 3084 3056 2656 
Q 3513 2228 3513 1497 
Q 3513 744 3044 326 
Q 2575 -91 1722 -91 
Q 1428 -91 1123 -41 
Q 819 9 494 109 
L 494 744 
Q 775 591 1075 516 
Q 1375 441 1709 441 
Q 2250 441 2565 725 
Q 2881 1009 2881 1497 
Q 2881 1984 2565 2268 
Q 2250 2553 1709 2553 
Q 1456 2553 1204 2497 
Q 953 2441 691 2322 
L 691 4666 
z
" transform="scale(0.015625)"/>
       </defs>
       <use xlink:href="#DejaVuSans-32"/>
       <use xlink:href="#DejaVuSans-35" x="63.623047"/>
       <use xlink:href="#DejaVuSans-30" x="127.246094"/>
      </g>
     </g>
    </g>
    <g id="xtick_3">
     <g id="line2d_3">
      <g>
       <use xlink:href="#mae9b4eb0d3" x="146.88" y="307.584" style="stroke: #000000; stroke-width: 0.8"/>
      </g>
     </g>
     <g id="text_3">
      <!-- 500 -->
      <g transform="translate(137.33625 322.182437)scale(0.1 -0.1)">
       <use xlink:href="#DejaVuSans-35"/>
       <use xlink:href="#DejaVuSans-30" x="63.623047"/>
       <use xlink:href="#DejaVuSans-30" x="127.246094"/>
      </g>
     </g>
    </g>
    <g id="xtick_4">
     <g id="line2d_4">
      <g>
       <use xlink:href="#mae9b4eb0d3" x="191.52" y="307.584" style="stroke: #000000; stroke-width: 0.8"/>
      </g>
     </g>
     <g id="text_4">
      <!-- 750 -->
      <g transform="translate(181.97625 322.182437)scale(0.1 -0.1)">
       <defs>
        <path id="DejaVuSans-37" d="M 525 4666 
L 3525 4666 
L 3525 4397 
L 1831 0 
L 1172 0 
L 2766 4134 
L 525 4134 
L 525 4666 
z
" transform="scale(0.015625)"/>
       </defs>
       <use xlink:href="#DejaVuSans-37"/>
       <use xlink:href="#DejaVuSans-35" x="63.623047"/>
       <use xlink:href="#DejaVuSans-30" x="127.246094"/>
      </g>
     </g>
    </g>
    <g id="xtick_5">
     <g id="line2d_5">
      <g>
       <use xlink:href="#mae9b4eb0d3" x="236.16" y="307.584" style="stroke: #000000; stroke-width: 0.8"/>
      </g>
     </g>
     <g id="text_5">
      <!-- 1000 -->
      <g transform="translate(223.435 322.182437)scale(0.1 -0.1)">
       <defs>
        <path id="DejaVuSans-31" d="M 794 531 
L 1825 531 
L 1825 4091 
L 703 3866 
L 703 4441 
L 1819 4666 
L 2450 4666 
L 2450 531 
L 3481 531 
L 3481 0 
L 794 0 
L 794 531 
z
" transform="scale(0.015625)"/>
       </defs>
       <use xlink:href="#DejaVuSans-31"/>
       <use xlink:href="#DejaVuSans-30" x="63.623047"/>
       <use xlink:href="#DejaVuSans-30" x="127.246094"/>
       <use xlink:href="#DejaVuSans-30" x="190.869141"/>
      </g>
     </g>
    </g>
    <g id="xtick_6">
     <g id="line2d_6">
      <g>
       <use xlink:href="#mae9b4eb0d3" x="280.8" y="307.584" style="stroke: #000000; stroke-width: 0.8"/>
      </g>
     </g>
     <g id="text_6">
      <!-- 1250 -->
      <g transform="translate(268.075 322.182437)scale(0.1 -0.1)">
       <use xlink:href="#DejaVuSans-31"/>
       <use xlink:href="#DejaVuSans-32" x="63.623047"/>
       <use xlink:href="#DejaVuSans-35" x="127.246094"/>
       <use xlink:href="#DejaVuSans-30" x="190.869141"/>
      </g>
     </g>
    </g>
    <g id="xtick_7">
     <g id="line2d_7">
      <g>
       <use xlink:href="#mae9b4eb0d3" x="325.44" y="307.584" style="stroke: #000000; stroke-width: 0.8"/>
      </g>
     </g>
     <g id="text_7">
      <!-- 1500 -->
      <g transform="translate(312.715 322.182437)scale(0.1 -0.1)">
       <use xlink:href="#DejaVuSans-31"/>
       <use xlink:href="#DejaVuSans-35" x="63.623047"/>
       <use xlink:href="#DejaVuSans-30" x="127.246094"/>
       <use xlink:href="#DejaVuSans-30" x="190.869141"/>
      </g>
     </g>
    </g>
    <g id="xtick_8">
     <g id="line2d_8">
      <g>
       <use xlink:href="#mae9b4eb0d3" x="370.08" y="307.584" style="stroke: #000000; stroke-width: 0.8"/>
      </g>
     </g>
     <g id="text_8">
      <!-- 1750 -->
      <g transform="translate(357.355 322.182437)scale(0.1 -0.1)">
       <use xlink:href="#DejaVuSans-31"/>
       <use xlink:href="#DejaVuSans-37" x="63.623047"/>
       <use xlink:href="#DejaVuSans-35" x="127.246094"/>
       <use xlink:href="#DejaVuSans-30" x="190.869141"/>
      </g>
     </g>
    </g>
    <g id="xtick_9">
     <g id="line2d_9">
      <g>
       <use xlink:href="#mae9b4eb0d3" x="414.72" y="307.584" style="stroke: #000000; stroke-width: 0.8"/>
      </g>
     </g>
     <g id="text_9">
      <!-- 2000 -->
      <g transform="translate(401.995 322.182437)scale(0.1 -0.1)">
       <use xlink:href="#DejaVuSans-32"/>
       <use xlink:href="#DejaVuSans-30" x="63.623047"/>
       <use xlink:href="#DejaVuSans-30" x="127.246094"/>
       <use xlink:href="#DejaVuSans-30" x="190.869141"/>
      </g>
     </g>
    </g>
    <g id="text_10">
     <!-- Time/ms -->
     <g transform="translate(214.767031 335.860562)scale(0.1 -0.1)">
      <defs>
       <path id="DejaVuSans-54" d="M -19 4666 
L 3928 4666 
L 3928 4134 
L 2272 4134 
L 2272 0 
L 1638 0 
L 1638 4134 
L -19 4134 
L -19 4666 
z
" transform="scale(0.015625)"/>
       <path id="DejaVuSans-69" d="M 603 3500 
L 1178 3500 
L 1178 0 
L 603 0 
L 603 3500 
z
M 603 4863 
L 1178 4863 
L 1178 4134 
L 603 4134 
L 603 4863 
z
" transform="scale(0.015625)"/>
       <path id="DejaVuSans-6d" d="M 3328 2828 
Q 3544 3216 3844 3400 
Q 4144 3584 4550 3584 
Q 5097 3584 5394 3201 
Q 5691 2819 5691 2113 
L 5691 0 
L 5113 0 
L 5113 2094 
Q 5113 2597 4934 2840 
Q 4756 3084 4391 3084 
Q 3944 3084 3684 2787 
Q 3425 2491 3425 1978 
L 3425 0 
L 2847 0 
L 2847 2094 
Q 2847 2600 2669 2842 
Q 2491 3084 2119 3084 
Q 1678 3084 1418 2786 
Q 1159 2488 1159 1978 
L 1159 0 
L 581 0 
L 581 3500 
L 1159 3500 
L 1159 2956 
Q 1356 3278 1631 3431 
Q 1906 3584 2284 3584 
Q 2666 3584 2933 3390 
Q 3200 3197 3328 2828 
z
" transform="scale(0.015625)"/>
       <path id="DejaVuSans-65" d="M 3597 1894 
L 3597 1613 
L 953 1613 
Q 991 1019 1311 708 
Q 1631 397 2203 397 
Q 2534 397 2845 478 
Q 3156 559 3463 722 
L 3463 178 
Q 3153 47 2828 -22 
Q 2503 -91 2169 -91 
Q 1331 -91 842 396 
Q 353 884 353 1716 
Q 353 2575 817 3079 
Q 1281 3584 2069 3584 
Q 2775 3584 3186 3129 
Q 3597 2675 3597 1894 
z
M 3022 2063 
Q 3016 2534 2758 2815 
Q 2500 3097 2075 3097 
Q 1594 3097 1305 2825 
Q 1016 2553 972 2059 
L 3022 2063 
z
" transform="scale(0.015625)"/>
       <path id="DejaVuSans-2f" d="M 1625 4666 
L 2156 4666 
L 531 -594 
L 0 -594 
L 1625 4666 
z
" transform="scale(0.015625)"/>
       <path id="DejaVuSans-73" d="M 2834 3397 
L 2834 2853 
Q 2591 2978 2328 3040 
Q 2066 3103 1784 3103 
Q 1356 3103 1142 2972 
Q 928 2841 928 2578 
Q 928 2378 1081 2264 
Q 1234 2150 1697 2047 
L 1894 2003 
Q 2506 1872 2764 1633 
Q 3022 1394 3022 966 
Q 3022 478 2636 193 
Q 2250 -91 1575 -91 
Q 1294 -91 989 -36 
Q 684 19 347 128 
L 347 722 
Q 666 556 975 473 
Q 1284 391 1588 391 
Q 1994 391 2212 530 
Q 2431 669 2431 922 
Q 2431 1156 2273 1281 
Q 2116 1406 1581 1522 
L 1381 1569 
Q 847 1681 609 1914 
Q 372 2147 372 2553 
Q 372 3047 722 3315 
Q 1072 3584 1716 3584 
Q 2034 3584 2315 3537 
Q 2597 3491 2834 3397 
z
" transform="scale(0.015625)"/>
      </defs>
      <use xlink:href="#DejaVuSans-54"/>
      <use xlink:href="#DejaVuSans-69" x="57.958984"/>
      <use xlink:href="#DejaVuSans-6d" x="85.742188"/>
      <use xlink:href="#DejaVuSans-65" x="183.154297"/>
      <use xlink:href="#DejaVuSans-2f" x="244.677734"/>
      <use xlink:href="#DejaVuSans-6d" x="278.369141"/>
      <use xlink:href="#DejaVuSans-73" x="375.78125"/>
     </g>
    </g>
   </g>
   <g id="matplotlib.axis_2">
    <g id="ytick_1">
     <g id="line2d_10">
      <defs>
       <path id="md635e8e47c" d="M 0 0 
L -3.5 0 
" style="stroke: #000000; stroke-width: 0.8"/>
      </defs>
      <g>
       <use xlink:href="#md635e8e47c" x="57.6" y="294.311591" style="stroke: #000000; stroke-width: 0.8"/>
      </g>
     </g>
     <g id="text_11">
      <!-- −0.2 -->
      <g transform="translate(26.317187 298.110809)scale(0.1 -0.1)">
       <defs>
        <path id="DejaVuSans-2212" d="M 678 2272 
L 4684 2272 
L 4684 1741 
L 678 1741 
L 678 2272 
z
" transform="scale(0.015625)"/>
        <path id="DejaVuSans-2e" d="M 684 794 
L 1344 794 
L 1344 0 
L 684 0 
L 684 794 
z
" transform="scale(0.015625)"/>
       </defs>
       <use xlink:href="#DejaVuSans-2212"/>
       <use xlink:href="#DejaVuSans-30" x="83.789062"/>
       <use xlink:href="#DejaVuSans-2e" x="147.412109"/>
       <use xlink:href="#DejaVuSans-32" x="179.199219"/>
      </g>
     </g>
    </g>
    <g id="ytick_2">
     <g id="line2d_11">
      <g>
       <use xlink:href="#md635e8e47c" x="57.6" y="247.289064" style="stroke: #000000; stroke-width: 0.8"/>
      </g>
     </g>
     <g id="text_12">
      <!-- 0.0 -->
      <g transform="translate(34.696875 251.088282)scale(0.1 -0.1)">
       <use xlink:href="#DejaVuSans-30"/>
       <use xlink:href="#DejaVuSans-2e" x="63.623047"/>
       <use xlink:href="#DejaVuSans-30" x="95.410156"/>
      </g>
     </g>
    </g>
    <g id="ytick_3">
     <g id="line2d_12">
      <g>
       <use xlink:href="#md635e8e47c" x="57.6" y="200.266537" style="stroke: #000000; stroke-width: 0.8"/>
      </g>
     </g>
     <g id="text_13">
      <!-- 0.2 -->
      <g transform="translate(34.696875 204.065755)scale(0.1 -0.1)">
       <use xlink:href="#DejaVuSans-30"/>
       <use xlink:href="#DejaVuSans-2e" x="63.623047"/>
       <use xlink:href="#DejaVuSans-32" x="95.410156"/>
      </g>
     </g>
    </g>
    <g id="ytick_4">
     <g id="line2d_13">
      <g>
       <use xlink:href="#md635e8e47c" x="57.6" y="153.24401" style="stroke: #000000; stroke-width: 0.8"/>
      </g>
     </g>
     <g id="text_14">
      <!-- 0.4 -->
      <g transform="translate(34.696875 157.043228)scale(0.1 -0.1)">
       <defs>
        <path id="DejaVuSans-34" d="M 2419 4116 
L 825 1625 
L 2419 1625 
L 2419 4116 
z
M 2253 4666 
L 3047 4666 
L 3047 1625 
L 3713 1625 
L 3713 1100 
L 3047 1100 
L 3047 0 
L 2419 0 
L 2419 1100 
L 313 1100 
L 313 1709 
L 2253 4666 
z
" transform="scale(0.015625)"/>
       </defs>
       <use xlink:href="#DejaVuSans-30"/>
       <use xlink:href="#DejaVuSans-2e" x="63.623047"/>
       <use xlink:href="#DejaVuSans-34" x="95.410156"/>
      </g>
     </g>
    </g>
    <g id="ytick_5">
     <g id="line2d_14">
      <g>
       <use xlink:href="#md635e8e47c" x="57.6" y="106.221482" style="stroke: #000000; stroke-width: 0.8"/>
      </g>
     </g>
     <g id="text_15">
      <!-- 0.6 -->
      <g transform="translate(34.696875 110.020701)scale(0.1 -0.1)">
       <defs>
        <path id="DejaVuSans-36" d="M 2113 2584 
Q 1688 2584 1439 2293 
Q 1191 2003 1191 1497 
Q 1191 994 1439 701 
Q 1688 409 2113 409 
Q 2538 409 2786 701 
Q 3034 994 3034 1497 
Q 3034 2003 2786 2293 
Q 2538 2584 2113 2584 
z
M 3366 4563 
L 3366 3988 
Q 3128 4100 2886 4159 
Q 2644 4219 2406 4219 
Q 1781 4219 1451 3797 
Q 1122 3375 1075 2522 
Q 1259 2794 1537 2939 
Q 1816 3084 2150 3084 
Q 2853 3084 3261 2657 
Q 3669 2231 3669 1497 
Q 3669 778 3244 343 
Q 2819 -91 2113 -91 
Q 1303 -91 875 529 
Q 447 1150 447 2328 
Q 447 3434 972 4092 
Q 1497 4750 2381 4750 
Q 2619 4750 2861 4703 
Q 3103 4656 3366 4563 
z
" transform="scale(0.015625)"/>
       </defs>
       <use xlink:href="#DejaVuSans-30"/>
       <use xlink:href="#DejaVuSans-2e" x="63.623047"/>
       <use xlink:href="#DejaVuSans-36" x="95.410156"/>
      </g>
     </g>
    </g>
    <g id="ytick_6">
     <g id="line2d_15">
      <g>
       <use xlink:href="#md635e8e47c" x="57.6" y="59.198955" style="stroke: #000000; stroke-width: 0.8"/>
      </g>
     </g>
     <g id="text_16">
      <!-- 0.8 -->
      <g transform="translate(34.696875 62.998174)scale(0.1 -0.1)">
       <defs>
        <path id="DejaVuSans-38" d="M 2034 2216 
Q 1584 2216 1326 1975 
Q 1069 1734 1069 1313 
Q 1069 891 1326 650 
Q 1584 409 2034 409 
Q 2484 409 2743 651 
Q 3003 894 3003 1313 
Q 3003 1734 2745 1975 
Q 2488 2216 2034 2216 
z
M 1403 2484 
Q 997 2584 770 2862 
Q 544 3141 544 3541 
Q 544 4100 942 4425 
Q 1341 4750 2034 4750 
Q 2731 4750 3128 4425 
Q 3525 4100 3525 3541 
Q 3525 3141 3298 2862 
Q 3072 2584 2669 2484 
Q 3125 2378 3379 2068 
Q 3634 1759 3634 1313 
Q 3634 634 3220 271 
Q 2806 -91 2034 -91 
Q 1263 -91 848 271 
Q 434 634 434 1313 
Q 434 1759 690 2068 
Q 947 2378 1403 2484 
z
M 1172 3481 
Q 1172 3119 1398 2916 
Q 1625 2713 2034 2713 
Q 2441 2713 2670 2916 
Q 2900 3119 2900 3481 
Q 2900 3844 2670 4047 
Q 2441 4250 2034 4250 
Q 1625 4250 1398 4047 
Q 1172 3844 1172 3481 
z
" transform="scale(0.015625)"/>
       </defs>
       <use xlink:href="#DejaVuSans-30"/>
       <use xlink:href="#DejaVuSans-2e" x="63.623047"/>
       <use xlink:href="#DejaVuSans-38" x="95.410156"/>
      </g>
     </g>
    </g>
    <g id="text_17">
     <!-- ECG -->
     <g transform="translate(20.2375 185.053)rotate(-90)scale(0.1 -0.1)">
      <defs>
       <path id="DejaVuSans-45" d="M 628 4666 
L 3578 4666 
L 3578 4134 
L 1259 4134 
L 1259 2753 
L 3481 2753 
L 3481 2222 
L 1259 2222 
L 1259 531 
L 3634 531 
L 3634 0 
L 628 0 
L 628 4666 
z
" transform="scale(0.015625)"/>
       <path id="DejaVuSans-43" d="M 4122 4306 
L 4122 3641 
Q 3803 3938 3442 4084 
Q 3081 4231 2675 4231 
Q 1875 4231 1450 3742 
Q 1025 3253 1025 2328 
Q 1025 1406 1450 917 
Q 1875 428 2675 428 
Q 3081 428 3442 575 
Q 3803 722 4122 1019 
L 4122 359 
Q 3791 134 3420 21 
Q 3050 -91 2638 -91 
Q 1578 -91 968 557 
Q 359 1206 359 2328 
Q 359 3453 968 4101 
Q 1578 4750 2638 4750 
Q 3056 4750 3426 4639 
Q 3797 4528 4122 4306 
z
" transform="scale(0.015625)"/>
       <path id="DejaVuSans-47" d="M 3809 666 
L 3809 1919 
L 2778 1919 
L 2778 2438 
L 4434 2438 
L 4434 434 
Q 4069 175 3628 42 
Q 3188 -91 2688 -91 
Q 1594 -91 976 548 
Q 359 1188 359 2328 
Q 359 3472 976 4111 
Q 1594 4750 2688 4750 
Q 3144 4750 3555 4637 
Q 3966 4525 4313 4306 
L 4313 3634 
Q 3963 3931 3569 4081 
Q 3175 4231 2741 4231 
Q 1884 4231 1454 3753 
Q 1025 3275 1025 2328 
Q 1025 1384 1454 906 
Q 1884 428 2741 428 
Q 3075 428 3337 486 
Q 3600 544 3809 666 
z
" transform="scale(0.015625)"/>
      </defs>
      <use xlink:href="#DejaVuSans-45"/>
      <use xlink:href="#DejaVuSans-43" x="63.183594"/>
      <use xlink:href="#DejaVuSans-47" x="133.007812"/>
     </g>
    </g>
   </g>
   <g id="line2d_16">
    <path d="M 57.6 247.289134 
L 63.31392 247.332696 
L 64.38528 247.338857 
L 65.99232 247.221359 
L 67.77792 247.346126 
L 70.0992 247.277143 
L 72.06336 247.303368 
L 77.42016 247.199182 
L 78.1344 247.096835 
L 78.84864 247.245459 
L 79.92 247.532943 
L 80.45568 247.435628 
L 81.7056 247.033948 
L 82.24128 247.129889 
L 83.4912 247.529984 
L 84.02688 247.440228 
L 85.2768 247.101864 
L 85.99104 247.212464 
L 87.0624 247.38507 
L 89.7408 247.244568 
L 90.81216 247.118736 
L 91.5264 247.329862 
L 92.4192 247.624008 
L 92.95488 247.48774 
L 94.2048 246.804626 
L 94.56192 246.88289 
L 95.0976 247.294327 
L 95.81184 247.841955 
L 96.16896 247.859709 
L 96.52608 247.658837 
L 97.776 246.64248 
L 98.13312 246.736877 
L 98.6688 247.236426 
L 99.38304 247.868832 
L 99.74016 247.898611 
L 100.09728 247.703525 
L 101.16864 246.804143 
L 101.52576 246.786732 
L 102.06144 247.062271 
L 102.77568 247.503647 
L 103.31136 247.578939 
L 107.06112 247.019222 
L 107.5968 247.377574 
L 108.31104 247.929206 
L 108.66816 247.953483 
L 109.02528 247.703487 
L 110.2752 246.261282 
L 110.63232 246.424745 
L 110.98944 246.954974 
L 111.88224 248.481663 
L 112.23936 248.525982 
L 112.59648 248.094844 
L 113.66784 245.972401 
L 113.8464 245.874608 
L 114.02496 245.913407 
L 114.38208 246.377559 
L 115.45344 248.565746 
L 115.632 248.661098 
L 115.81056 248.625127 
L 116.16768 248.191576 
L 117.23904 246.237632 
L 117.59616 246.182459 
L 117.95328 246.518825 
L 119.02464 247.923236 
L 119.38176 247.963028 
L 119.91744 247.660838 
L 120.63168 247.273253 
L 122.06016 246.942911 
L 122.7744 246.601344 
L 123.13152 246.727701 
L 123.48864 247.166203 
L 124.38144 248.6844 
L 124.56 248.782409 
L 124.73856 248.737773 
L 125.09568 248.196743 
L 125.80992 246.003226 
L 126.16704 245.179535 
L 126.3456 245.031398 
L 126.52416 245.10107 
L 126.88128 245.887904 
L 128.1312 250.146339 
L 128.30976 250.06311 
L 128.66688 249.099388 
L 129.73824 244.318757 
L 129.9168 244.10199 
L 130.09536 244.190722 
L 130.45248 245.232592 
L 131.52384 250.193336 
L 131.7024 250.405997 
L 131.88096 250.318805 
L 132.23808 249.332989 
L 133.30944 244.917778 
L 133.488 244.738392 
L 133.66656 244.80371 
L 134.02368 245.564476 
L 134.91648 248.352956 
L 135.2736 248.715493 
L 135.63072 248.535123 
L 136.52352 247.614427 
L 137.0592 247.589938 
L 137.41632 247.492252 
L 137.77344 247.026174 
L 138.8448 244.671895 
L 139.02336 244.758311 
L 139.20192 245.137582 
L 139.55904 246.783158 
L 140.45184 252.403947 
L 140.6304 252.763195 
L 140.80896 252.593622 
L 140.98752 251.84956 
L 141.34464 248.774552 
L 142.23744 239.100883 
L 142.416 238.529765 
L 142.59456 238.806817 
L 142.77312 239.970484 
L 143.13024 244.66889 
L 144.02304 258.828794 
L 144.2016 259.627369 
L 144.38016 259.226733 
L 144.55872 257.596644 
L 144.91584 251.145033 
L 145.80864 232.262106 
L 145.9872 231.234463 
L 146.16576 231.768501 
L 146.34432 233.885367 
L 146.70144 242.144518 
L 146.88 248.003751 
L 147.05856 243.687795 
L 147.41568 229.866053 
L 147.7728 232.79422 
L 147.95136 233.160089 
L 148.12992 232.998135 
L 148.30848 236.051791 
L 148.84416 255.528519 
L 149.20128 260.125223 
L 149.37984 255.224465 
L 149.5584 253.773349 
L 149.73696 262.326683 
L 150.4512 251.413794 
L 150.62976 251.370537 
L 150.80832 248.489705 
L 150.98688 242.763617 
L 151.16544 242.741178 
L 151.344 240.479583 
L 151.52256 242.650155 
L 151.87968 255.062288 
L 152.05824 252.373411 
L 152.2368 251.912293 
L 152.41536 252.502599 
L 152.59392 253.485096 
L 152.77248 255.562291 
L 152.95104 254.878041 
L 153.30816 256.323262 
L 153.84384 250.137464 
L 154.0224 245.208659 
L 154.20096 243.85794 
L 154.37952 245.461446 
L 154.55808 250.31429 
L 154.73664 251.332289 
L 154.9152 245.647327 
L 155.09376 244.767431 
L 155.45088 263.860275 
L 155.62944 256.998464 
L 155.808 254.895056 
L 155.98656 256.005398 
L 156.34368 254.652978 
L 156.7008 212.844612 
L 157.05792 284.079473 
L 157.41504 255.187845 
L 157.5936 256.720981 
L 157.77216 255.901924 
L 157.95072 253.376416 
L 158.12928 254.047593 
L 158.30784 248.045826 
L 158.4864 248.345274 
L 158.66496 247.6889 
L 158.84352 246.595402 
L 159.02208 248.288434 
L 159.20064 246.634835 
L 159.3792 253.511571 
L 159.55776 252.893037 
L 159.73632 253.884595 
L 159.91488 252.390878 
L 160.272 253.186063 
L 160.45056 251.754566 
L 160.62912 260.188494 
L 160.80768 261.658362 
L 161.34336 240.551188 
L 161.52192 242.073531 
L 161.70048 242.23272 
L 161.87904 245.289376 
L 162.41472 227.374793 
L 162.59328 228.802833 
L 162.77184 225.847764 
L 162.9504 225.032902 
L 163.66464 201.83878 
L 164.02176 197.857243 
L 164.20032 187.527453 
L 164.37888 186.156788 
L 164.91456 150.058139 
L 165.45024 137.0595 
L 165.80736 118.44375 
L 165.98592 102.357433 
L 166.16448 100.291943 
L 166.34304 103.389935 
L 166.5216 85.856247 
L 166.70016 79.771483 
L 166.87872 82.141393 
L 167.05728 80.528076 
L 167.23584 82.018718 
L 167.4144 79.078024 
L 167.59296 88.398913 
L 167.77152 86.115227 
L 168.12864 103.530041 
L 169.02144 157.838105 
L 169.55712 179.212864 
L 169.73568 205.377631 
L 169.91424 213.70982 
L 170.0928 204.081332 
L 170.44992 212.110186 
L 170.62848 209.189885 
L 170.80704 212.356214 
L 170.9856 212.939434 
L 171.16416 219.558413 
L 171.69984 225.996332 
L 171.8784 235.045791 
L 172.05696 228.466345 
L 172.41408 231.456286 
L 172.7712 228.117681 
L 172.94976 229.614375 
L 173.12832 234.554924 
L 173.30688 232.335914 
L 173.48544 227.361784 
L 173.664 232.329231 
L 173.84256 241.755561 
L 174.02112 239.676522 
L 174.19968 240.711088 
L 174.37824 237.643275 
L 174.5568 238.218544 
L 175.09248 246.874032 
L 175.27104 236.530517 
L 175.4496 238.793759 
L 175.62816 237.833548 
L 175.80672 238.552348 
L 175.98528 234.532438 
L 176.16384 245.773034 
L 176.3424 248.430341 
L 176.69952 240.918122 
L 176.87808 244.755068 
L 177.05664 245.251415 
L 177.2352 247.504056 
L 177.41376 245.050869 
L 177.77088 233.72321 
L 177.94944 232.823036 
L 178.128 242.896128 
L 178.30656 237.932234 
L 178.48512 240.457302 
L 178.66368 248.700564 
L 179.0208 237.550859 
L 179.19936 239.772678 
L 179.37792 234.162573 
L 179.55648 243.890738 
L 179.9136 230.41744 
L 180.27072 238.6274 
L 180.44928 240.558452 
L 180.62784 240.259868 
L 180.8064 242.195848 
L 180.98496 242.552098 
L 181.16352 244.016083 
L 181.52064 239.759817 
L 181.6992 244.792394 
L 181.87776 246.141892 
L 182.05632 244.518876 
L 182.23488 249.453771 
L 182.41344 241.080432 
L 182.592 243.596455 
L 182.94912 250.332479 
L 183.12768 243.593034 
L 183.30624 230.672142 
L 183.4848 231.685555 
L 183.66336 229.054698 
L 183.84192 238.215998 
L 184.02048 241.261166 
L 184.3776 232.918182 
L 184.55616 240.516693 
L 184.91328 229.399742 
L 185.09184 232.069321 
L 185.2704 229.397379 
L 185.44896 231.346771 
L 185.62752 236.056269 
L 185.80608 235.431473 
L 185.98464 238.106972 
L 186.1632 243.343775 
L 186.34176 233.070247 
L 186.52032 235.82922 
L 186.69888 236.448272 
L 187.056 220.091144 
L 187.23456 218.272422 
L 187.9488 233.739065 
L 188.12736 231.541526 
L 188.30592 232.665798 
L 188.8416 241.154597 
L 189.19872 238.338014 
L 189.37728 236.732565 
L 189.91296 222.918106 
L 190.09152 214.5726 
L 190.27008 214.672917 
L 190.44864 213.618276 
L 190.80576 256.419881 
L 190.98432 238.946801 
L 191.16288 233.1426 
L 191.34144 232.907446 
L 191.87712 203.522975 
L 192.05568 208.894704 
L 192.23424 220.405403 
L 192.4128 219.75267 
L 192.59136 214.3684 
L 192.76992 216.731128 
L 193.3056 228.188281 
L 193.48416 229.157234 
L 193.66272 225.509936 
L 193.84128 213.997294 
L 194.01984 214.573766 
L 194.1984 219.340717 
L 194.37696 232.185285 
L 194.73408 228.710718 
L 194.91264 231.774976 
L 195.26976 221.302913 
L 195.80544 232.614424 
L 195.984 230.004627 
L 196.34112 211.075379 
L 196.51968 208.170475 
L 196.69824 213.128951 
L 197.05536 209.684515 
L 197.23392 197.75687 
L 197.41248 199.318362 
L 197.7696 221.752022 
L 197.94816 216.002436 
L 198.12672 218.898223 
L 198.30528 213.656729 
L 198.48384 212.200392 
L 198.6624 204.495126 
L 198.84096 206.327138 
L 199.01952 218.785169 
L 199.19808 208.253526 
L 199.37664 206.264687 
L 199.5552 208.238686 
L 199.73376 198.803026 
L 199.91232 232.573574 
L 200.09088 236.493893 
L 200.448 224.344094 
L 200.62656 221.136128 
L 200.80512 212.295354 
L 200.98368 217.880056 
L 201.16224 217.953109 
L 201.3408 212.530558 
L 201.51936 217.426876 
L 201.69792 218.293989 
L 201.87648 224.198748 
L 202.2336 220.221703 
L 202.41216 216.445462 
L 202.59072 216.474206 
L 202.94784 202.66631 
L 203.1264 202.802706 
L 203.30496 208.016124 
L 203.48352 225.791098 
L 203.84064 219.797904 
L 204.19776 227.94789 
L 204.73344 225.169132 
L 204.912 226.869483 
L 205.09056 234.644518 
L 205.26912 228.411751 
L 205.44768 227.118671 
L 205.62624 230.887758 
L 205.8048 228.928206 
L 206.16192 235.528115 
L 206.34048 235.262618 
L 206.51904 230.314108 
L 206.6976 233.050185 
L 206.87616 229.833869 
L 207.05472 232.246966 
L 207.23328 228.609276 
L 207.5904 235.065723 
L 207.94752 229.900394 
L 208.12608 228.569019 
L 208.4832 221.233408 
L 208.66176 228.013734 
L 209.01888 232.594584 
L 209.19744 240.164526 
L 209.376 233.101244 
L 209.55456 240.19046 
L 209.73312 239.439746 
L 209.91168 247.418821 
L 210.09024 246.447528 
L 210.2688 246.193116 
L 210.80448 235.133761 
L 210.98304 237.091658 
L 211.1616 236.883114 
L 211.51872 258.378183 
L 211.69728 250.630949 
L 211.87584 251.518452 
L 212.0544 239.651015 
L 212.23296 236.080396 
L 212.59008 225.179538 
L 212.76864 221.865104 
L 213.12576 229.889727 
L 213.30432 236.068626 
L 213.48288 228.614969 
L 213.66144 227.924693 
L 213.84 234.711555 
L 214.01856 232.462321 
L 214.19712 236.680662 
L 214.37568 243.530073 
L 214.55424 231.182294 
L 214.7328 229.818483 
L 214.91136 234.758501 
L 215.08992 221.247792 
L 215.26848 224.66893 
L 215.80416 266.429514 
L 216.16128 250.233706 
L 216.33984 250.892697 
L 216.69696 245.011673 
L 217.05408 252.765191 
L 217.23264 248.331674 
L 217.4112 238.365876 
L 217.94688 247.203546 
L 218.12544 239.229601 
L 218.304 239.722813 
L 218.48256 238.60156 
L 218.66112 228.165976 
L 218.83968 238.033887 
L 219.01824 236.897313 
L 219.1968 236.553028 
L 219.37536 227.031967 
L 219.55392 224.760534 
L 219.73248 228.065035 
L 220.0896 239.663701 
L 220.26816 240.714897 
L 220.44672 246.690157 
L 220.62528 236.747961 
L 220.80384 235.296332 
L 220.9824 222.234744 
L 221.51808 246.981725 
L 221.69664 247.697393 
L 222.05376 234.016291 
L 222.41088 247.927362 
L 222.58944 241.772514 
L 222.768 240.123209 
L 222.94656 224.010407 
L 223.12512 234.6749 
L 223.30368 235.613822 
L 223.6608 255.396168 
L 224.19648 244.996076 
L 224.37504 250.864811 
L 224.5536 249.205898 
L 224.73216 244.269684 
L 225.08928 247.529763 
L 225.26784 246.333916 
L 225.4464 240.382681 
L 225.62496 239.01177 
L 225.98208 250.033034 
L 226.16064 234.666125 
L 226.3392 239.239812 
L 226.69632 225.439717 
L 226.87488 232.876884 
L 227.05344 224.783561 
L 227.232 232.741916 
L 227.58912 222.108939 
L 227.76768 239.055623 
L 228.1248 248.337068 
L 228.48192 235.680176 
L 228.66048 231.518647 
L 228.83904 240.530268 
L 229.0176 238.633836 
L 229.19616 235.535091 
L 229.73184 248.698458 
L 229.9104 262.932039 
L 230.08896 264.876016 
L 230.26752 251.281017 
L 230.44608 248.016201 
L 230.62464 253.16455 
L 230.8032 252.876365 
L 230.98176 248.583504 
L 231.16032 248.670828 
L 231.33888 242.971338 
L 231.51744 254.152098 
L 231.696 256.61056 
L 231.87456 249.029276 
L 232.05312 234.489961 
L 232.41024 254.697703 
L 232.5888 257.455451 
L 232.76736 258.11465 
L 233.12448 244.173412 
L 233.30304 243.735898 
L 233.66016 240.886179 
L 233.83872 247.394313 
L 234.01728 242.347793 
L 234.19584 242.949095 
L 234.3744 244.090385 
L 234.55296 226.379956 
L 234.73152 224.219211 
L 234.91008 252.309145 
L 235.08864 234.182374 
L 235.44576 220.065895 
L 235.80288 234.570786 
L 235.98144 234.253676 
L 236.16 239.377279 
L 236.33856 249.530899 
L 236.51712 247.377929 
L 236.69568 248.208897 
L 236.87424 253.132917 
L 237.0528 254.841451 
L 237.23136 253.147039 
L 237.40992 239.758333 
L 237.76704 249.141903 
L 237.9456 250.226406 
L 238.12416 254.316278 
L 238.30272 250.941116 
L 238.65984 242.603591 
L 239.19552 236.722029 
L 239.37408 238.688837 
L 240.08832 222.892788 
L 240.26688 209.519638 
L 240.44544 214.547194 
L 240.624 225.645312 
L 240.80256 229.611787 
L 240.98112 215.246984 
L 241.15968 228.229886 
L 241.33824 227.112833 
L 241.5168 218.080723 
L 241.69536 217.067213 
L 241.87392 216.933849 
L 242.23104 228.356924 
L 242.4096 230.598525 
L 242.58816 237.704301 
L 242.76672 239.370347 
L 242.94528 233.297832 
L 243.12384 232.545573 
L 243.3024 238.28681 
L 243.48096 236.703068 
L 243.65952 238.673253 
L 243.83808 237.748885 
L 244.01664 241.637427 
L 244.1952 240.413416 
L 244.37376 237.157045 
L 244.55232 229.212042 
L 245.088 246.867074 
L 245.44512 242.470986 
L 245.62368 246.865115 
L 245.9808 242.161615 
L 246.15936 231.483391 
L 246.33792 239.293471 
L 246.51648 236.282106 
L 246.69504 230.200996 
L 246.8736 229.56792 
L 247.23072 219.361892 
L 247.40928 219.765328 
L 247.58784 227.532675 
L 247.7664 228.367511 
L 248.12352 219.080833 
L 248.30208 230.870573 
L 248.48064 235.104907 
L 248.83776 221.012181 
L 249.01632 222.299854 
L 249.19488 230.538373 
L 249.37344 226.431979 
L 249.552 238.375182 
L 249.73056 236.634634 
L 249.90912 228.070728 
L 250.62336 244.270409 
L 250.80192 242.098817 
L 250.98048 243.807028 
L 251.3376 233.414871 
L 251.51616 237.218312 
L 251.69472 250.250405 
L 252.05184 242.697047 
L 252.2304 237.154956 
L 252.58752 259.37755 
L 252.76608 256.613877 
L 252.94464 256.498461 
L 253.1232 244.909367 
L 253.30176 241.367028 
L 253.48032 231.636784 
L 253.83744 247.105652 
L 254.016 251.095264 
L 254.19456 248.661881 
L 254.37312 248.195849 
L 254.55168 249.008745 
L 254.73024 245.228632 
L 254.9088 246.217025 
L 255.08736 243.189642 
L 255.26592 237.476473 
L 255.44448 238.59773 
L 255.8016 243.294355 
L 255.98016 241.119464 
L 256.15872 241.532065 
L 256.33728 240.69731 
L 256.51584 241.092741 
L 256.6944 243.185038 
L 256.87296 243.896621 
L 257.23008 252.632893 
L 257.40864 252.020174 
L 257.5872 248.937361 
L 257.76576 255.449279 
L 257.94432 266.106446 
L 258.12288 265.126805 
L 258.48 249.409382 
L 258.65856 245.930723 
L 258.83712 245.120091 
L 259.01568 243.612547 
L 259.3728 253.409252 
L 259.55136 244.724175 
L 259.72992 247.180646 
L 260.08704 245.009853 
L 260.44416 230.449662 
L 260.62272 241.426154 
L 260.80128 242.989336 
L 261.1584 236.90749 
L 261.33696 244.704469 
L 261.51552 241.244716 
L 261.69408 234.822371 
L 262.0512 241.010174 
L 262.22976 240.983976 
L 262.40832 238.944498 
L 262.58688 240.153907 
L 262.76544 240.036466 
L 262.944 247.91184 
L 263.12256 246.909857 
L 263.30112 244.744577 
L 263.47968 245.390263 
L 263.8368 243.004049 
L 264.01536 242.944378 
L 264.19392 242.649428 
L 264.37248 242.611636 
L 264.55104 248.503782 
L 264.7296 249.730407 
L 264.90816 244.682487 
L 265.08672 245.846698 
L 265.26528 248.253304 
L 265.44384 243.283946 
L 265.6224 247.491989 
L 265.80096 248.554031 
L 266.15808 242.431765 
L 266.5152 241.643397 
L 266.69376 234.000048 
L 266.87232 232.455144 
L 267.05088 232.08255 
L 267.58656 214.870509 
L 267.94368 200.596156 
L 268.12224 202.955954 
L 268.3008 201.929673 
L 268.47936 199.784784 
L 268.65792 195.933897 
L 268.83648 199.030376 
L 269.01504 196.595805 
L 269.90784 155.844414 
L 270.26496 149.294783 
L 270.62208 135.614925 
L 270.80064 133.463423 
L 271.15776 114.180795 
L 271.51488 90.966286 
L 271.872 84.223236 
L 272.05056 77.582528 
L 272.22912 75.849607 
L 272.40768 78.093424 
L 272.58624 76.315468 
L 272.7648 76.336474 
L 273.12192 80.220805 
L 273.47904 90.376136 
L 274.5504 155.520895 
L 274.72896 160.96987 
L 275.26464 190.646223 
L 275.4432 187.402466 
L 275.80032 190.546712 
L 275.97888 190.801053 
L 276.15744 196.525904 
L 276.336 195.641509 
L 276.51456 201.606109 
L 276.69312 212.141545 
L 276.87168 205.0872 
L 277.05024 205.48388 
L 277.2288 201.02359 
L 277.58592 209.247863 
L 277.76448 208.049996 
L 277.94304 209.929253 
L 278.1216 206.407759 
L 278.47872 219.417697 
L 278.65728 217.575395 
L 278.83584 218.784024 
L 279.19296 227.130585 
L 279.37152 224.441045 
L 279.55008 227.664395 
L 279.72864 234.407058 
L 279.9072 234.535711 
L 280.08576 234.227257 
L 280.26432 234.705645 
L 280.44288 235.777801 
L 280.62144 245.846904 
L 280.8 241.842365 
L 281.15712 224.363088 
L 281.33568 225.461821 
L 281.51424 223.02567 
L 281.6928 223.400456 
L 282.22848 226.591275 
L 282.40704 228.292562 
L 282.5856 227.942701 
L 282.94272 222.016019 
L 283.12128 222.938787 
L 283.29984 235.027738 
L 283.65696 212.521842 
L 283.83552 222.896211 
L 284.01408 225.66072 
L 284.19264 225.804904 
L 284.3712 224.723529 
L 284.54976 220.168284 
L 284.90688 227.774987 
L 285.08544 226.351829 
L 285.264 219.340662 
L 285.44256 218.842996 
L 285.62112 223.624461 
L 285.79968 237.010175 
L 285.97824 228.686289 
L 286.1568 229.193231 
L 286.33536 233.468037 
L 286.51392 231.319499 
L 286.69248 225.350129 
L 286.87104 226.999906 
L 287.0496 230.219979 
L 287.22816 226.05467 
L 287.40672 226.916038 
L 287.58528 225.553258 
L 287.76384 225.293731 
L 287.9424 220.387698 
L 288.12096 224.121628 
L 288.29952 222.614034 
L 288.65664 210.059947 
L 288.8352 211.112817 
L 289.01376 221.076998 
L 289.19232 221.849767 
L 289.37088 216.479617 
L 289.54944 217.11836 
L 289.90656 205.846059 
L 290.44224 202.109722 
L 290.97792 222.178632 
L 291.15648 221.715367 
L 291.33504 222.392077 
L 291.5136 225.623805 
L 291.69216 222.139494 
L 291.87072 221.883172 
L 292.22784 226.821126 
L 292.58496 214.646269 
L 292.76352 217.83028 
L 292.94208 225.666798 
L 293.2992 209.772887 
L 293.47776 218.043639 
L 293.65632 215.442969 
L 293.83488 216.84585 
L 294.01344 215.142645 
L 294.192 214.702323 
L 294.37056 215.376878 
L 294.72768 211.468128 
L 295.26336 198.939137 
L 295.44192 204.827229 
L 295.62048 205.361605 
L 295.79904 212.230188 
L 295.9776 201.049032 
L 296.15616 210.534787 
L 296.33472 210.971585 
L 296.51328 212.364239 
L 296.69184 208.878992 
L 297.04896 220.263067 
L 297.22752 215.457107 
L 297.58464 190.485137 
L 297.7632 201.050582 
L 297.94176 199.945759 
L 298.29888 209.087346 
L 298.47744 202.151386 
L 298.83456 199.076669 
L 299.01312 201.287716 
L 299.19168 204.952115 
L 299.37024 205.152198 
L 299.5488 205.031243 
L 299.90592 193.917848 
L 300.08448 195.398193 
L 300.4416 206.564994 
L 300.62016 204.294184 
L 300.79872 196.04552 
L 300.97728 198.548847 
L 301.15584 203.848856 
L 301.3344 198.077473 
L 301.51296 201.929092 
L 301.69152 208.995332 
L 301.87008 202.288235 
L 302.04864 207.999034 
L 302.2272 207.686544 
L 302.40576 196.558287 
L 302.58432 196.281055 
L 302.76288 195.309351 
L 303.12 188.270194 
L 303.29856 189.522591 
L 303.47712 199.676897 
L 303.65568 196.875329 
L 303.83424 201.104438 
L 304.0128 197.452036 
L 304.36992 199.314049 
L 304.54848 193.313866 
L 304.9056 193.075597 
L 305.08416 196.044774 
L 305.26272 211.945078 
L 305.7984 197.220657 
L 305.97696 201.482536 
L 306.15552 197.99058 
L 306.33408 201.284491 
L 306.6912 221.189175 
L 306.86976 218.252582 
L 307.04832 210.1482 
L 307.22688 195.405015 
L 307.40544 193.292494 
L 307.584 202.748788 
L 307.76256 202.052723 
L 308.29824 210.148529 
L 308.65536 205.113428 
L 308.83392 204.537134 
L 309.19104 196.219631 
L 309.3696 208.647978 
L 309.54816 210.188343 
L 309.72672 202.054792 
L 309.90528 205.943075 
L 310.08384 203.226121 
L 310.2624 207.809105 
L 310.61952 210.108684 
L 310.97664 210.115986 
L 311.1552 216.953095 
L 311.33376 209.703484 
L 311.69088 215.163863 
L 311.86944 213.84785 
L 312.048 216.310207 
L 312.22656 209.733275 
L 312.40512 209.494772 
L 312.58368 213.245958 
L 312.76224 212.434115 
L 312.9408 221.115844 
L 313.11936 216.62224 
L 313.29792 215.44174 
L 313.65504 217.839473 
L 313.8336 225.243201 
L 314.01216 210.620102 
L 314.19072 209.49186 
L 314.54784 236.867738 
L 314.7264 217.959231 
L 314.90496 213.311228 
L 315.08352 223.041668 
L 315.26208 221.177356 
L 315.44064 221.119536 
L 315.6192 231.255137 
L 315.79776 231.438451 
L 315.97632 228.114861 
L 316.15488 228.134372 
L 316.33344 221.87268 
L 316.512 220.744886 
L 316.69056 221.104217 
L 317.04768 218.554168 
L 317.58336 224.779971 
L 317.76192 227.867418 
L 317.94048 226.140003 
L 318.11904 220.471373 
L 318.47616 215.61663 
L 318.83328 221.908481 
L 319.01184 220.671854 
L 319.1904 222.026166 
L 319.36896 221.191996 
L 319.72608 216.763864 
L 319.90464 226.073519 
L 320.0832 227.991487 
L 320.44032 239.000064 
L 320.61888 234.674795 
L 320.79744 240.273394 
L 321.15456 230.825293 
L 321.33312 230.252756 
L 321.51168 230.646501 
L 321.69024 228.96449 
L 321.8688 225.463905 
L 322.04736 226.673858 
L 322.22592 231.335563 
L 322.94016 220.280105 
L 323.11872 221.613419 
L 323.29728 226.148148 
L 323.83296 212.36827 
L 324.01152 214.508735 
L 324.19008 210.395326 
L 324.36864 210.389473 
L 324.72576 214.64919 
L 324.90432 215.373049 
L 325.08288 219.016099 
L 325.26144 219.887159 
L 325.44 226.233903 
L 325.61856 226.853921 
L 325.79712 217.661994 
L 326.15424 227.786105 
L 326.3328 227.565621 
L 326.51136 228.697286 
L 326.68992 235.255179 
L 326.86848 236.293057 
L 327.04704 235.968081 
L 327.58272 221.407802 
L 327.76128 217.056671 
L 327.93984 219.205291 
L 328.1184 225.760779 
L 328.29696 238.448516 
L 328.47552 238.354798 
L 328.65408 239.24673 
L 328.83264 220.061309 
L 329.0112 217.698446 
L 329.18976 219.883178 
L 329.36832 226.403572 
L 329.904 218.886009 
L 330.43968 242.977865 
L 330.7968 230.988857 
L 330.97536 232.509464 
L 331.15392 230.626437 
L 331.6896 235.544488 
L 331.86816 235.048966 
L 332.04672 231.044489 
L 332.22528 236.633678 
L 332.40384 234.548627 
L 332.5824 227.367352 
L 332.93952 240.437272 
L 333.29664 230.787851 
L 333.4752 230.048908 
L 333.83232 232.744074 
L 334.01088 229.196407 
L 334.18944 236.516483 
L 334.368 234.915517 
L 334.54656 236.289478 
L 334.72512 230.081076 
L 334.90368 216.108578 
L 335.08224 220.54742 
L 335.2608 218.975058 
L 335.43936 225.476401 
L 335.61792 240.204525 
L 335.79648 236.687011 
L 335.97504 224.46126 
L 336.1536 223.471483 
L 336.33216 229.002979 
L 336.51072 217.189015 
L 336.68928 230.365886 
L 336.86784 227.573538 
L 337.22496 213.831179 
L 337.40352 210.618084 
L 337.76064 227.757007 
L 337.9392 219.660963 
L 338.29632 247.850884 
L 338.65344 210.596373 
L 338.832 227.545379 
L 339.01056 225.475129 
L 339.18912 227.810813 
L 339.54624 239.662732 
L 339.7248 233.027849 
L 339.90336 240.95813 
L 340.08192 243.396455 
L 340.26048 231.022329 
L 340.43904 246.421786 
L 340.97472 213.810697 
L 341.15328 202.549528 
L 341.86752 238.832598 
L 342.04608 235.06318 
L 342.22464 211.1208 
L 342.76032 224.909321 
L 342.93888 223.367247 
L 343.11744 216.430312 
L 343.296 217.480044 
L 343.47456 220.553466 
L 343.65312 220.500776 
L 343.83168 224.203052 
L 344.01024 223.777632 
L 344.1888 219.157874 
L 344.54592 225.825205 
L 344.72448 225.279308 
L 344.90304 226.585778 
L 345.0816 231.138623 
L 345.43872 220.036301 
L 345.79584 211.584267 
L 345.9744 212.804696 
L 346.15296 231.543134 
L 346.33152 230.726834 
L 346.51008 234.15112 
L 346.8672 219.756741 
L 347.04576 215.544346 
L 347.22432 216.796716 
L 347.40288 216.768903 
L 347.58144 217.954867 
L 347.76 221.781939 
L 348.11712 211.585553 
L 348.29568 214.322624 
L 348.47424 231.170412 
L 349.00992 238.448633 
L 349.18848 231.021852 
L 349.36704 238.765703 
L 349.5456 225.723101 
L 349.72416 201.364309 
L 350.08128 195.972218 
L 350.25984 216.638276 
L 350.4384 215.790632 
L 350.79552 235.289466 
L 350.97408 232.579319 
L 351.15264 217.741581 
L 351.3312 212.78607 
L 351.68832 219.689345 
L 351.86688 220.668223 
L 352.04544 219.585604 
L 352.224 217.641134 
L 352.40256 214.360879 
L 352.58112 214.898705 
L 352.75968 220.238603 
L 352.93824 211.773287 
L 353.1168 209.096618 
L 353.29536 220.635217 
L 353.47392 222.359728 
L 353.65248 217.665676 
L 353.83104 223.521793 
L 354.0096 224.5427 
L 354.54528 215.512283 
L 354.72384 214.914835 
L 354.9024 218.391744 
L 355.08096 218.861562 
L 355.25952 217.373984 
L 355.43808 211.414784 
L 355.61664 213.165832 
L 355.97376 224.442425 
L 356.33088 210.190618 
L 356.688 230.387129 
L 357.04512 219.900776 
L 357.22368 224.528267 
L 357.40224 217.808846 
L 357.5808 221.221563 
L 357.75936 216.540076 
L 357.93792 205.43296 
L 358.11648 227.304356 
L 358.29504 231.398968 
L 358.4736 225.322829 
L 358.65216 233.043863 
L 358.83072 218.107569 
L 359.18784 243.746002 
L 359.54496 246.399001 
L 359.90208 210.642472 
L 360.08064 224.670837 
L 360.2592 225.122444 
L 360.43776 232.51852 
L 360.61632 226.496938 
L 360.79488 228.84006 
L 360.97344 234.372422 
L 361.152 229.138009 
L 361.50912 248.99785 
L 361.68768 234.574565 
L 361.86624 209.784047 
L 362.22336 229.178993 
L 362.40192 229.706914 
L 362.58048 234.688664 
L 362.75904 233.893163 
L 362.9376 234.221496 
L 363.29472 236.020797 
L 363.65184 221.516866 
L 364.00896 236.146807 
L 364.18752 228.811915 
L 364.36608 237.578664 
L 364.54464 235.635692 
L 364.7232 250.703422 
L 365.08032 238.514141 
L 365.25888 223.213997 
L 365.79456 234.939644 
L 366.15168 225.832394 
L 366.33024 223.162687 
L 366.5088 226.187824 
L 366.68736 225.869667 
L 366.86592 223.081039 
L 367.04448 224.071417 
L 367.4016 243.834621 
L 367.58016 241.646924 
L 368.11584 228.160959 
L 368.47296 224.069764 
L 368.65152 232.005601 
L 368.83008 232.37211 
L 369.00864 232.995975 
L 369.1872 235.137114 
L 369.36576 240.642735 
L 369.54432 237.821448 
L 369.72288 238.165803 
L 369.90144 230.46064 
L 370.08 234.551209 
L 370.43712 226.433409 
L 370.79424 240.250781 
L 370.9728 242.374703 
L 371.15136 239.052435 
L 371.32992 243.297114 
L 371.68704 240.80886 
L 372.04416 227.518619 
L 372.22272 226.416912 
L 372.40128 223.610529 
L 372.57984 218.163754 
L 372.7584 232.947911 
L 372.93696 234.175388 
L 373.11552 225.646917 
L 373.29408 210.753269 
L 373.47264 205.977237 
L 373.6512 211.94779 
L 373.82976 206.893417 
L 374.00832 193.847438 
L 374.18688 191.159538 
L 374.36544 195.297683 
L 374.544 194.741624 
L 374.72256 187.477118 
L 374.90112 187.794679 
L 375.4368 172.295337 
L 375.61536 178.336672 
L 375.79392 166.795528 
L 375.97248 145.60109 
L 376.15104 141.797027 
L 376.3296 135.145976 
L 376.50816 119.260165 
L 376.68672 120.978083 
L 377.04384 116.935728 
L 377.75808 73.722516 
L 378.1152 60.203949 
L 378.29376 64.637934 
L 378.47232 60.58951 
L 378.65088 61.911041 
L 378.82944 53.568 
L 379.008 54.619046 
L 379.54368 73.550845 
L 380.61504 160.712564 
L 380.97216 167.095948 
L 381.32928 191.17219 
L 381.6864 192.660771 
L 381.86496 205.233671 
L 382.5792 219.700223 
L 382.75776 219.231784 
L 382.93632 223.414364 
L 383.11488 217.979408 
L 383.29344 216.07165 
L 383.472 219.026303 
L 383.65056 218.66761 
L 384.00768 227.420745 
L 384.3648 219.633173 
L 384.54336 221.664951 
L 384.72192 218.737396 
L 384.90048 218.461201 
L 385.07904 216.78431 
L 385.61472 230.752809 
L 385.79328 228.940075 
L 385.97184 228.466901 
L 386.32896 222.382182 
L 386.50752 225.278083 
L 386.68608 225.841585 
L 387.22176 220.449344 
L 387.57888 213.194017 
L 387.75744 218.284064 
L 387.936 218.363465 
L 388.11456 222.1402 
L 388.29312 213.915804 
L 388.47168 217.04101 
L 388.8288 228.868927 
L 389.00736 229.403027 
L 389.18592 232.811839 
L 389.36448 233.28082 
L 389.54304 237.395054 
L 389.7216 233.184853 
L 389.90016 232.642108 
L 390.07872 233.690304 
L 390.25728 231.311778 
L 390.43584 231.493342 
L 390.6144 230.117081 
L 390.79296 230.31088 
L 390.97152 230.204418 
L 391.32864 219.60725 
L 391.5072 223.104959 
L 391.68576 224.229123 
L 391.86432 220.310151 
L 392.22144 233.037766 
L 392.4 233.740763 
L 392.75712 227.58401 
L 392.93568 228.397907 
L 393.11424 224.330935 
L 393.2928 224.066793 
L 393.47136 229.524193 
L 393.64992 231.013692 
L 393.82848 226.915983 
L 394.00704 231.036362 
L 394.36416 224.708183 
L 394.54272 219.203526 
L 394.72128 231.028923 
L 394.89984 224.950215 
L 395.0784 232.208582 
L 395.25696 233.567231 
L 395.61408 226.535219 
L 395.79264 234.494599 
L 396.14976 224.103799 
L 396.32832 222.939628 
L 396.864 230.891859 
L 397.04256 223.881212 
L 397.22112 227.176433 
L 397.39968 225.245071 
L 397.7568 232.108108 
L 398.11392 227.302554 
L 398.47104 231.087764 
L 398.6496 227.151192 
L 399.00672 225.80113 
L 399.36384 218.784267 
L 399.5424 223.033603 
L 399.72096 223.239934 
L 400.07808 214.731821 
L 400.25664 216.229718 
L 400.4352 219.671538 
L 400.61376 217.235967 
L 400.79232 218.580784 
L 400.97088 224.208202 
L 401.14944 223.081169 
L 401.328 223.171893 
L 401.50656 218.164008 
L 401.86368 216.835275 
L 402.04224 216.80702 
L 402.2208 219.949067 
L 402.39936 219.235551 
L 402.57792 221.025 
L 402.75648 217.37472 
L 402.93504 216.063908 
L 403.29216 210.208549 
L 403.47072 209.47397 
L 403.82784 213.081558 
L 404.0064 210.746678 
L 404.18496 210.601783 
L 404.36352 206.951447 
L 404.72064 216.971212 
L 404.8992 217.523359 
L 405.07776 219.305611 
L 405.43488 211.205608 
L 405.61344 211.200976 
L 405.792 212.274657 
L 405.97056 211.78699 
L 406.14912 207.107249 
L 406.86336 220.659098 
L 407.04192 220.014803 
L 407.75616 210.072682 
L 407.93472 207.338089 
L 408.11328 207.732793 
L 408.29184 216.276139 
L 408.4704 217.922269 
L 408.64896 216.679726 
L 409.3632 207.249472 
L 409.54176 209.820934 
L 409.72032 215.145244 
L 409.89888 215.327009 
L 410.07744 213.266215 
L 410.256 212.917365 
L 410.43456 211.830943 
L 410.61312 211.560837 
L 410.79168 212.290372 
L 411.1488 207.48695 
L 411.50592 220.136318 
L 412.0416 211.035333 
L 412.22016 213.843432 
L 412.39872 213.11255 
L 412.57728 216.429301 
L 412.75584 216.830087 
L 412.9344 222.595906 
L 413.29152 218.736155 
L 413.47008 215.490262 
L 413.64864 215.28988 
L 413.8272 215.715345 
L 414.00576 220.212843 
L 414.36288 221.285209 
L 414.54144 215.001665 
L 414.72 216.421787 
L 414.89856 220.625469 
L 414.89856 220.625469 
" clip-path="url(#p25a87359f1)" style="fill: none; stroke: #1f77b4; stroke-width: 1.5; stroke-linecap: square"/>
   </g>
   <g id="patch_3">
    <path d="M 57.6 307.584 
L 57.6 41.472 
" style="fill: none; stroke: #000000; stroke-width: 0.8; stroke-linejoin: miter; stroke-linecap: square"/>
   </g>
   <g id="patch_4">
    <path d="M 414.72 307.584 
L 414.72 41.472 
" style="fill: none; stroke: #000000; stroke-width: 0.8; stroke-linejoin: miter; stroke-linecap: square"/>
   </g>
   <g id="patch_5">
    <path d="M 57.6 307.584 
L 414.72 307.584 
" style="fill: none; stroke: #000000; stroke-width: 0.8; stroke-linejoin: miter; stroke-linecap: square"/>
   </g>
   <g id="patch_6">
    <path d="M 57.6 41.472 
L 414.72 41.472 
" style="fill: none; stroke: #000000; stroke-width: 0.8; stroke-linejoin: miter; stroke-linecap: square"/>
   </g>
   <g id="text_18">
    <!-- bandstop filter to remove the 50 Hz -->
    <g transform="translate(128.758125 35.472)scale(0.12 -0.12)">
     <defs>
      <path id="DejaVuSans-62" d="M 3116 1747 
Q 3116 2381 2855 2742 
Q 2594 3103 2138 3103 
Q 1681 3103 1420 2742 
Q 1159 2381 1159 1747 
Q 1159 1113 1420 752 
Q 1681 391 2138 391 
Q 2594 391 2855 752 
Q 3116 1113 3116 1747 
z
M 1159 2969 
Q 1341 3281 1617 3432 
Q 1894 3584 2278 3584 
Q 2916 3584 3314 3078 
Q 3713 2572 3713 1747 
Q 3713 922 3314 415 
Q 2916 -91 2278 -91 
Q 1894 -91 1617 61 
Q 1341 213 1159 525 
L 1159 0 
L 581 0 
L 581 4863 
L 1159 4863 
L 1159 2969 
z
" transform="scale(0.015625)"/>
      <path id="DejaVuSans-61" d="M 2194 1759 
Q 1497 1759 1228 1600 
Q 959 1441 959 1056 
Q 959 750 1161 570 
Q 1363 391 1709 391 
Q 2188 391 2477 730 
Q 2766 1069 2766 1631 
L 2766 1759 
L 2194 1759 
z
M 3341 1997 
L 3341 0 
L 2766 0 
L 2766 531 
Q 2569 213 2275 61 
Q 1981 -91 1556 -91 
Q 1019 -91 701 211 
Q 384 513 384 1019 
Q 384 1609 779 1909 
Q 1175 2209 1959 2209 
L 2766 2209 
L 2766 2266 
Q 2766 2663 2505 2880 
Q 2244 3097 1772 3097 
Q 1472 3097 1187 3025 
Q 903 2953 641 2809 
L 641 3341 
Q 956 3463 1253 3523 
Q 1550 3584 1831 3584 
Q 2591 3584 2966 3190 
Q 3341 2797 3341 1997 
z
" transform="scale(0.015625)"/>
      <path id="DejaVuSans-6e" d="M 3513 2113 
L 3513 0 
L 2938 0 
L 2938 2094 
Q 2938 2591 2744 2837 
Q 2550 3084 2163 3084 
Q 1697 3084 1428 2787 
Q 1159 2491 1159 1978 
L 1159 0 
L 581 0 
L 581 3500 
L 1159 3500 
L 1159 2956 
Q 1366 3272 1645 3428 
Q 1925 3584 2291 3584 
Q 2894 3584 3203 3211 
Q 3513 2838 3513 2113 
z
" transform="scale(0.015625)"/>
      <path id="DejaVuSans-64" d="M 2906 2969 
L 2906 4863 
L 3481 4863 
L 3481 0 
L 2906 0 
L 2906 525 
Q 2725 213 2448 61 
Q 2172 -91 1784 -91 
Q 1150 -91 751 415 
Q 353 922 353 1747 
Q 353 2572 751 3078 
Q 1150 3584 1784 3584 
Q 2172 3584 2448 3432 
Q 2725 3281 2906 2969 
z
M 947 1747 
Q 947 1113 1208 752 
Q 1469 391 1925 391 
Q 2381 391 2643 752 
Q 2906 1113 2906 1747 
Q 2906 2381 2643 2742 
Q 2381 3103 1925 3103 
Q 1469 3103 1208 2742 
Q 947 2381 947 1747 
z
" transform="scale(0.015625)"/>
      <path id="DejaVuSans-74" d="M 1172 4494 
L 1172 3500 
L 2356 3500 
L 2356 3053 
L 1172 3053 
L 1172 1153 
Q 1172 725 1289 603 
Q 1406 481 1766 481 
L 2356 481 
L 2356 0 
L 1766 0 
Q 1100 0 847 248 
Q 594 497 594 1153 
L 594 3053 
L 172 3053 
L 172 3500 
L 594 3500 
L 594 4494 
L 1172 4494 
z
" transform="scale(0.015625)"/>
      <path id="DejaVuSans-6f" d="M 1959 3097 
Q 1497 3097 1228 2736 
Q 959 2375 959 1747 
Q 959 1119 1226 758 
Q 1494 397 1959 397 
Q 2419 397 2687 759 
Q 2956 1122 2956 1747 
Q 2956 2369 2687 2733 
Q 2419 3097 1959 3097 
z
M 1959 3584 
Q 2709 3584 3137 3096 
Q 3566 2609 3566 1747 
Q 3566 888 3137 398 
Q 2709 -91 1959 -91 
Q 1206 -91 779 398 
Q 353 888 353 1747 
Q 353 2609 779 3096 
Q 1206 3584 1959 3584 
z
" transform="scale(0.015625)"/>
      <path id="DejaVuSans-70" d="M 1159 525 
L 1159 -1331 
L 581 -1331 
L 581 3500 
L 1159 3500 
L 1159 2969 
Q 1341 3281 1617 3432 
Q 1894 3584 2278 3584 
Q 2916 3584 3314 3078 
Q 3713 2572 3713 1747 
Q 3713 922 3314 415 
Q 2916 -91 2278 -91 
Q 1894 -91 1617 61 
Q 1341 213 1159 525 
z
M 3116 1747 
Q 3116 2381 2855 2742 
Q 2594 3103 2138 3103 
Q 1681 3103 1420 2742 
Q 1159 2381 1159 1747 
Q 1159 1113 1420 752 
Q 1681 391 2138 391 
Q 2594 391 2855 752 
Q 3116 1113 3116 1747 
z
" transform="scale(0.015625)"/>
      <path id="DejaVuSans-20" transform="scale(0.015625)"/>
      <path id="DejaVuSans-66" d="M 2375 4863 
L 2375 4384 
L 1825 4384 
Q 1516 4384 1395 4259 
Q 1275 4134 1275 3809 
L 1275 3500 
L 2222 3500 
L 2222 3053 
L 1275 3053 
L 1275 0 
L 697 0 
L 697 3053 
L 147 3053 
L 147 3500 
L 697 3500 
L 697 3744 
Q 697 4328 969 4595 
Q 1241 4863 1831 4863 
L 2375 4863 
z
" transform="scale(0.015625)"/>
      <path id="DejaVuSans-6c" d="M 603 4863 
L 1178 4863 
L 1178 0 
L 603 0 
L 603 4863 
z
" transform="scale(0.015625)"/>
      <path id="DejaVuSans-72" d="M 2631 2963 
Q 2534 3019 2420 3045 
Q 2306 3072 2169 3072 
Q 1681 3072 1420 2755 
Q 1159 2438 1159 1844 
L 1159 0 
L 581 0 
L 581 3500 
L 1159 3500 
L 1159 2956 
Q 1341 3275 1631 3429 
Q 1922 3584 2338 3584 
Q 2397 3584 2469 3576 
Q 2541 3569 2628 3553 
L 2631 2963 
z
" transform="scale(0.015625)"/>
      <path id="DejaVuSans-76" d="M 191 3500 
L 800 3500 
L 1894 563 
L 2988 3500 
L 3597 3500 
L 2284 0 
L 1503 0 
L 191 3500 
z
" transform="scale(0.015625)"/>
      <path id="DejaVuSans-68" d="M 3513 2113 
L 3513 0 
L 2938 0 
L 2938 2094 
Q 2938 2591 2744 2837 
Q 2550 3084 2163 3084 
Q 1697 3084 1428 2787 
Q 1159 2491 1159 1978 
L 1159 0 
L 581 0 
L 581 4863 
L 1159 4863 
L 1159 2956 
Q 1366 3272 1645 3428 
Q 1925 3584 2291 3584 
Q 2894 3584 3203 3211 
Q 3513 2838 3513 2113 
z
" transform="scale(0.015625)"/>
      <path id="DejaVuSans-48" d="M 628 4666 
L 1259 4666 
L 1259 2753 
L 3553 2753 
L 3553 4666 
L 4184 4666 
L 4184 0 
L 3553 0 
L 3553 2222 
L 1259 2222 
L 1259 0 
L 628 0 
L 628 4666 
z
" transform="scale(0.015625)"/>
      <path id="DejaVuSans-7a" d="M 353 3500 
L 3084 3500 
L 3084 2975 
L 922 459 
L 3084 459 
L 3084 0 
L 275 0 
L 275 525 
L 2438 3041 
L 353 3041 
L 353 3500 
z
" transform="scale(0.015625)"/>
     </defs>
     <use xlink:href="#DejaVuSans-62"/>
     <use xlink:href="#DejaVuSans-61" x="63.476562"/>
     <use xlink:href="#DejaVuSans-6e" x="124.755859"/>
     <use xlink:href="#DejaVuSans-64" x="188.134766"/>
     <use xlink:href="#DejaVuSans-73" x="251.611328"/>
     <use xlink:href="#DejaVuSans-74" x="303.710938"/>
     <use xlink:href="#DejaVuSans-6f" x="342.919922"/>
     <use xlink:href="#DejaVuSans-70" x="404.101562"/>
     <use xlink:href="#DejaVuSans-20" x="467.578125"/>
     <use xlink:href="#DejaVuSans-66" x="499.365234"/>
     <use xlink:href="#DejaVuSans-69" x="534.570312"/>
     <use xlink:href="#DejaVuSans-6c" x="562.353516"/>
     <use xlink:href="#DejaVuSans-74" x="590.136719"/>
     <use xlink:href="#DejaVuSans-65" x="629.345703"/>
     <use xlink:href="#DejaVuSans-72" x="690.869141"/>
     <use xlink:href="#DejaVuSans-20" x="731.982422"/>
     <use xlink:href="#DejaVuSans-74" x="763.769531"/>
     <use xlink:href="#DejaVuSans-6f" x="802.978516"/>
     <use xlink:href="#DejaVuSans-20" x="864.160156"/>
     <use xlink:href="#DejaVuSans-72" x="895.947266"/>
     <use xlink:href="#DejaVuSans-65" x="934.810547"/>
     <use xlink:href="#DejaVuSans-6d" x="996.333984"/>
     <use xlink:href="#DejaVuSans-6f" x="1093.746094"/>
     <use xlink:href="#DejaVuSans-76" x="1154.927734"/>
     <use xlink:href="#DejaVuSans-65" x="1214.107422"/>
     <use xlink:href="#DejaVuSans-20" x="1275.630859"/>
     <use xlink:href="#DejaVuSans-74" x="1307.417969"/>
     <use xlink:href="#DejaVuSans-68" x="1346.626953"/>
     <use xlink:href="#DejaVuSans-65" x="1410.005859"/>
     <use xlink:href="#DejaVuSans-20" x="1471.529297"/>
     <use xlink:href="#DejaVuSans-35" x="1503.316406"/>
     <use xlink:href="#DejaVuSans-30" x="1566.939453"/>
     <use xlink:href="#DejaVuSans-20" x="1630.5625"/>
     <use xlink:href="#DejaVuSans-48" x="1662.349609"/>
     <use xlink:href="#DejaVuSans-7a" x="1737.544922"/>
    </g>
   </g>
  </g>
 </g>
 <defs>
  <clipPath id="p25a87359f1">
   <rect x="57.6" y="41.472" width="357.12" height="266.112"/>
  </clipPath>
 </defs>
</svg>
